<svg width="14" height="14" viewBox="0 0 14 14" fill="none" xmlns="http://www.w3.org/2000/svg">
<path fill-rule="evenodd" clip-rule="evenodd" d="M0.777778 1.55556C0.35 1.55556 0 1.20556 0 0.777778C0 0.35 0.35 0 0.777778 0H13.2222C13.65 0 14 0.35 14 0.777778C14 1.20556 13.65 1.55556 13.2222 1.55556H0.777778ZM8.55556 3.11111H0.777778C0.35 3.11111 0 3.46111 0 3.88889C0 4.31667 0.35 4.66667 0.777778 4.66667H8.55556C8.98333 4.66667 9.33333 4.31667 9.33333 3.88889C9.33333 3.46111 8.98333 3.11111 8.55556 3.11111ZM8.55556 9.33333H0.777778C0.35 9.33333 0 9.68333 0 10.1111C0 10.5389 0.35 10.8889 0.777778 10.8889H8.55556C8.98333 10.8889 9.33333 10.5389 9.33333 10.1111C9.33333 9.68333 8.98333 9.33333 8.55556 9.33333ZM13.2222 7.77778H0.777778C0.35 7.77778 0 7.42778 0 7C0 6.57222 0.35 6.22222 0.777778 6.22222H13.2222C13.65 6.22222 14 6.57222 14 7C14 7.42778 13.65 7.77778 13.2222 7.77778ZM0.777778 14H13.2222C13.65 14 14 13.65 14 13.2222C14 12.7944 13.65 12.4444 13.2222 12.4444H0.777778C0.35 12.4444 0 12.7944 0 13.2222C0 13.65 0.35 14 0.777778 14Z" fill="black"/>
</svg>
