<svg width="24" height="24" viewBox="0 0 24 24" fill="none" xmlns="http://www.w3.org/2000/svg">
<path d="M14.9392 5.19C15.3172 4.75428 15.6055 4.24817 15.7874 3.70074C15.9693 3.1533 16.0413 2.57533 15.9992 2C14.8386 2.09369 13.7612 2.63956 12.9992 3.52C12.6343 3.94198 12.3578 4.43288 12.186 4.96364C12.0142 5.49441 11.9507 6.05424 11.9992 6.61C12.5653 6.61472 13.125 6.4891 13.6348 6.24286C14.1446 5.99662 14.5909 5.63637 14.9392 5.19ZM17.4592 12.63C17.4659 11.8637 17.6677 11.1118 18.0456 10.4452C18.4236 9.77859 18.9651 9.21926 19.6192 8.82C19.2064 8.22524 18.6607 7.73483 18.0254 7.38767C17.3901 7.04052 16.6827 6.84615 15.9592 6.82C14.3992 6.66 12.9592 7.73 12.1292 7.73C11.2992 7.73 10.1292 6.84 8.82918 6.86C7.97931 6.888 7.1512 7.13578 6.42563 7.57919C5.70005 8.02259 5.10179 8.64648 4.68918 9.39C2.92918 12.45 4.23918 17 5.99918 19.47C6.79918 20.68 7.79918 22.05 9.11918 22C10.4392 21.95 10.8692 21.18 12.3992 21.18C13.9292 21.18 14.3992 22 15.6992 21.97C16.9992 21.94 17.9192 20.73 18.7592 19.52C19.3542 18.6415 19.819 17.6816 20.1392 16.67C19.3467 16.332 18.6705 15.7693 18.1942 15.0513C17.7179 14.3333 17.4624 13.4916 17.4592 12.63Z" fill="white"/>
</svg>
