<svg width="150" height="45" viewBox="0 0 150 45" fill="none" xmlns="http://www.w3.org/2000/svg">
<g clip-path="url(#clip0_2494_13112)">
<path d="M147.854 39.4229C147.854 39.978 147.744 40.5276 147.532 41.0404C147.319 41.5531 147.008 42.0189 146.615 42.4112C146.222 42.8035 145.756 43.1145 145.243 43.3265C144.729 43.5385 144.18 43.6474 143.624 43.6468H5.21667C4.09487 43.6479 3.01853 43.2036 2.22437 42.4115C1.4302 41.6194 0.983243 40.5444 0.981781 39.4229V5.73918C0.983242 4.61717 1.43003 3.5416 2.22403 2.74863C3.01804 1.95566 4.09436 1.51012 5.21667 1.50983H143.623C144.179 1.50983 144.729 1.61923 145.242 1.83179C145.755 2.04435 146.222 2.3559 146.614 2.74864C147.007 3.14139 147.319 3.60764 147.531 4.12076C147.743 4.63388 147.853 5.18383 147.853 5.73918L147.854 39.4229Z" fill="white"/>
<path d="M143.624 44.6294H5.21667C3.83474 44.6291 2.50936 44.0807 1.53137 43.1047C0.553366 42.1286 0.00262943 40.8045 0 39.4229L0 5.74027C0.00204436 4.35802 0.552418 3.03302 1.53038 2.05593C2.50835 1.07884 3.83405 0.529456 5.21667 0.52829L143.623 0.52829C145.006 0.530039 146.331 1.07961 147.309 2.05657C148.287 3.03354 148.837 4.3582 148.84 5.74027V39.4229C148.842 42.2947 146.498 44.6294 143.624 44.6294Z" fill="#A6A6A6"/>
<path d="M147.854 39.4229C147.854 39.978 147.744 40.5276 147.532 41.0404C147.319 41.5531 147.008 42.0189 146.615 42.4112C146.222 42.8035 145.756 43.1145 145.243 43.3265C144.729 43.5385 144.18 43.6474 143.624 43.6468H5.21667C4.09487 43.6479 3.01853 43.2036 2.22437 42.4115C1.4302 41.6194 0.983243 40.5444 0.981781 39.4229V5.73918C0.983242 4.61717 1.43003 3.5416 2.22403 2.74863C3.01804 1.95566 4.09436 1.51012 5.21667 1.50983H143.623C144.179 1.50983 144.729 1.61923 145.242 1.83179C145.755 2.04435 146.222 2.3559 146.614 2.74864C147.007 3.14139 147.319 3.60764 147.531 4.12076C147.743 4.63388 147.853 5.18383 147.853 5.73918L147.854 39.4229Z" fill="black"/>
<path d="M33.2348 22.3467C33.2028 18.7922 36.146 17.063 36.2806 16.9825C34.6137 14.553 32.0302 14.221 31.1224 14.1945C28.9525 13.9662 26.8478 15.4926 25.7424 15.4926C24.615 15.4926 22.9129 14.2166 21.0784 14.2541C18.7177 14.2905 16.5093 15.6569 15.2981 17.7787C12.7984 22.1051 14.6627 28.463 17.0575 31.96C18.2555 33.6738 19.6554 35.585 21.4877 35.5178C23.2803 35.445 23.9499 34.3763 26.1131 34.3763C28.2564 34.3763 28.8852 35.5178 30.7539 35.4747C32.6778 35.445 33.889 33.7543 35.0451 32.0262C36.4295 30.0643 36.9855 28.1299 37.0075 28.0306C36.9634 28.0152 33.2723 26.6058 33.2348 22.3467ZM29.7048 11.894C30.669 10.6886 31.3286 9.04872 31.1455 7.38455C29.7501 7.44631 28.0049 8.34953 27 9.52845C26.1109 10.5673 25.3166 12.2701 25.5218 13.8714C27.0893 13.9883 28.6988 13.0807 29.7048 11.894Z" fill="white"/>
<path d="M143.624 0.52829H69.489L98.5265 44.6294H143.624C145.007 44.6282 146.332 44.0791 147.31 43.1025C148.288 42.1259 148.838 40.8015 148.841 39.4196V5.74027C148.839 4.35811 148.288 3.03328 147.31 2.05625C146.332 1.07923 145.007 0.529748 143.624 0.52829V0.52829Z" fill="url(#paint0_linear_2494_13112)"/>
<path d="M59.1991 35.2719H56.6939L55.3216 30.9609H50.5517L49.2445 35.2719H46.8055L51.5324 20.5954H54.4512L59.1991 35.2719ZM54.9079 29.1523L53.6669 25.32C53.5356 24.9285 53.2885 24.0065 52.9267 22.5552H52.8826C52.737 23.1794 52.5042 24.1013 52.1854 25.32L50.9654 29.1523H54.9079ZM71.3312 29.8504C71.3312 31.6502 70.8425 33.0729 69.8641 34.1172C68.9882 35.0469 67.8994 35.5112 66.601 35.5112C65.1989 35.5112 64.1907 35.0116 63.5785 34.0103V39.563H61.2266V28.1675C61.2266 27.0371 61.1968 25.878 61.1395 24.6891H63.2078L63.3391 26.3665H63.3832C64.1675 25.1027 65.3578 24.4708 66.9551 24.4708C68.2039 24.4708 69.2463 24.9637 70.0803 25.9508C70.9131 26.94 71.3312 28.2391 71.3312 29.8504ZM68.9352 29.9364C68.9352 28.9064 68.7036 28.0572 68.2381 27.3878C67.7295 26.6919 67.0467 26.3434 66.1907 26.3434C65.6104 26.3434 65.0831 26.5375 64.6121 26.9202C64.14 27.3062 63.8311 27.8102 63.6866 28.4344C63.6221 28.6678 63.5854 28.908 63.5774 29.1501V30.9157C63.5774 31.6844 63.8134 32.334 64.2856 32.8655C64.7577 33.3949 65.371 33.6607 66.1256 33.6607C67.0114 33.6607 67.7008 33.3177 68.1939 32.6372C68.6881 31.9546 68.9352 31.0547 68.9352 29.9364ZM83.5064 29.8504C83.5064 31.6502 83.0177 33.0729 82.0392 34.1172C81.1622 35.0469 80.0746 35.5112 78.7751 35.5112C77.373 35.5112 76.3648 35.0116 75.7525 34.0103V39.563H73.4007V28.1675C73.4007 27.0371 73.3709 25.878 73.3135 24.6891H75.3819L75.5132 26.3665H75.5573C76.3405 25.1027 77.5308 24.4708 79.1292 24.4708C80.3768 24.4708 81.4193 24.9637 82.2554 25.9508C83.0872 26.94 83.5064 28.2391 83.5064 29.8504ZM81.1093 29.9364C81.1093 28.9064 80.8765 28.0572 80.411 27.3878C79.9025 26.6919 79.2218 26.3434 78.3658 26.3434C77.7856 26.3434 77.2583 26.5375 76.7851 26.9202C76.3129 27.3062 76.0051 27.8102 75.8606 28.4344C75.7889 28.7255 75.7503 28.9626 75.7503 29.1501V30.9157C75.7503 31.6844 75.9875 32.334 76.4574 32.8655C76.9296 33.3938 77.5429 33.6607 78.2996 33.6607C79.1866 33.6607 79.876 33.3177 80.368 32.6372C80.8622 31.9546 81.1093 31.0547 81.1093 29.9364ZM97.1189 31.155C97.1189 32.4045 96.6821 33.4202 95.8139 34.2044C94.8586 35.0602 93.5249 35.4892 91.8151 35.4892C90.2354 35.4892 88.969 35.1848 88.0137 34.5749L88.5576 32.6152C89.589 33.2261 90.7219 33.5305 91.9552 33.5305C92.8421 33.5305 93.5316 33.3298 94.0236 32.9317C94.5166 32.5325 94.7659 31.9987 94.7659 31.3326C94.7659 30.736 94.5597 30.2364 94.1548 29.8294C93.7478 29.4236 93.0749 29.0453 92.1295 28.6979C89.5592 27.7396 88.273 26.3379 88.273 24.4939C88.273 23.2896 88.7275 22.3037 89.6342 21.5328C90.541 20.7631 91.7434 20.3782 93.2392 20.3782C94.5751 20.3782 95.6882 20.6109 96.5718 21.0752L95.9816 22.9919C95.1498 22.5419 94.2111 22.3169 93.1609 22.3169C92.3314 22.3169 91.6805 22.521 91.215 22.9268C90.8234 23.2896 90.6248 23.7319 90.6248 24.2568C90.6248 24.8358 90.851 25.3166 91.301 25.6938C91.6915 26.0412 92.4042 26.4195 93.4345 26.8253C94.6987 27.3348 95.6275 27.9282 96.2221 28.6097C96.8211 29.2913 97.1189 30.1415 97.1189 31.155ZM104.915 26.4537H102.322V31.5918C102.322 32.8986 102.779 33.5504 103.695 33.5504C104.115 33.5504 104.464 33.5151 104.739 33.4412L104.804 35.2267C104.341 35.3998 103.731 35.487 102.975 35.487C102.047 35.487 101.321 35.2035 100.797 34.6367C100.275 34.0698 100.012 33.1203 100.012 31.7836V26.4493H98.468V24.6847H100.012V22.7471L102.322 22.0501V24.6847H104.915V26.4537ZM116.588 29.8934C116.588 31.5201 116.122 32.8556 115.194 33.9C114.222 34.9752 112.929 35.5112 111.317 35.5112C109.762 35.5112 108.525 34.9962 107.603 33.9673C106.681 32.9361 106.22 31.637 106.22 30.0698C106.22 28.4299 106.696 27.0867 107.646 26.0423C108.598 24.9968 109.88 24.4741 111.492 24.4741C113.045 24.4741 114.292 24.9902 115.237 26.0203C116.139 27.0194 116.588 28.3097 116.588 29.8934ZM114.15 29.9474C114.15 28.978 113.94 28.1465 113.52 27.4506C113.027 26.6103 112.321 26.1901 111.407 26.1901C110.464 26.1901 109.742 26.6103 109.25 27.4506C108.829 28.1465 108.619 28.9924 108.619 29.9915C108.619 30.962 108.829 31.7958 109.25 32.4895C109.758 33.3298 110.468 33.75 111.387 33.75C112.286 33.75 112.991 33.321 113.5 32.4685C113.933 31.7561 114.15 30.919 114.15 29.9474ZM124.236 26.7569C123.991 26.7128 123.743 26.691 123.495 26.6919C122.667 26.6919 122.027 27.0029 121.577 27.6293C121.187 28.1807 120.99 28.8777 120.99 29.7191V35.2719H118.639V28.0219C118.641 26.911 118.618 25.8001 118.57 24.6902H120.619L120.705 26.715H120.77C121.019 26.0192 121.41 25.4578 121.946 25.0376C122.437 24.6705 123.033 24.4716 123.646 24.4708C123.863 24.4708 124.059 24.4862 124.234 24.5138L124.236 26.7569ZM134.754 29.4798C134.76 29.8373 134.731 30.1944 134.668 30.5463H127.613C127.639 31.5918 127.981 32.3924 128.636 32.9438C129.231 33.4357 130 33.6827 130.944 33.6827C131.989 33.6827 132.942 33.5173 133.799 33.1831L134.167 34.8142C133.166 35.2509 131.983 35.4682 130.619 35.4682C128.977 35.4682 127.689 34.9852 126.751 34.0213C125.816 33.0563 125.347 31.7594 125.347 30.1349C125.347 28.5402 125.782 27.2113 126.655 26.1515C127.568 25.02 128.803 24.4542 130.356 24.4542C131.882 24.4542 133.037 25.02 133.821 26.1515C134.442 27.0481 134.754 28.1597 134.754 29.4798ZM132.512 28.87C132.528 28.1719 132.374 27.5708 132.055 27.0624C131.648 26.4073 131.021 26.0809 130.182 26.0809C129.413 26.0809 128.786 26.3996 128.31 27.0393C127.918 27.5477 127.685 28.1586 127.614 28.8678L132.512 28.87Z" fill="white"/>
<path d="M49.8733 15.4065C49.2191 15.4065 48.6532 15.3746 48.1822 15.3205V8.2249C48.841 8.12316 49.5067 8.07301 50.1733 8.07492C52.8705 8.07492 54.1126 9.40162 54.1126 11.5643C54.1126 14.0589 52.6454 15.4065 49.8733 15.4065ZM50.2682 8.98475C49.9042 8.98475 49.5942 9.00681 49.3372 9.05975V14.4537C49.4761 14.4757 49.7431 14.4857 50.1182 14.4857C51.8854 14.4857 52.8914 13.4799 52.8914 11.5963C52.8914 9.91665 51.9813 8.98475 50.2682 8.98475ZM57.9834 15.4606C56.4633 15.4606 55.4782 14.3258 55.4782 12.7851C55.4782 11.1794 56.4843 10.0346 58.0695 10.0346C59.5675 10.0346 60.5747 11.1154 60.5747 12.7002C60.5747 14.3258 59.5366 15.4606 57.9834 15.4606ZM58.0276 10.8794C57.1925 10.8794 56.6575 11.6602 56.6575 12.752C56.6575 13.8229 57.2035 14.6037 58.0165 14.6037C58.8295 14.6037 59.3756 13.7688 59.3756 12.73C59.3756 11.6712 58.8406 10.8794 58.0276 10.8794ZM69.243 10.1416L67.6159 15.3426H66.5558L65.8818 13.084C65.7142 12.5315 65.5747 11.9709 65.4637 11.4044H65.4416C65.3567 11.9712 65.1956 12.5392 65.0247 13.084L64.3076 15.3426H63.2365L61.7054 10.1416H62.8934L63.4825 12.6142C63.6215 13.2031 63.7384 13.7589 63.8355 14.2839H63.8576C63.9425 13.846 64.0815 13.299 64.2856 12.6252L65.0247 10.1427H65.9667L66.6738 12.5723C66.8448 13.1612 66.9838 13.7391 67.0919 14.285H67.1228C67.1978 13.7501 67.3159 13.1821 67.4758 12.5723L68.1079 10.1427L69.243 10.1416ZM75.233 15.3426H74.0769V12.3561C74.0769 11.4363 73.7239 10.9754 73.0278 10.9754C72.3428 10.9754 71.8717 11.5643 71.8717 12.2491V15.3426H70.7157V11.6282C70.7157 11.1684 70.7046 10.6754 70.6727 10.1405H71.6897L71.7438 10.9434H71.7758C72.0869 10.3876 72.7178 10.0346 73.4249 10.0346C74.517 10.0346 75.2341 10.8695 75.2341 12.2282L75.233 15.3426ZM78.421 15.3426H77.2638V7.7551H78.421V15.3426ZM82.636 15.4606C81.117 15.4606 80.1308 14.3258 80.1308 12.7851C80.1308 11.1794 81.1369 10.0346 82.721 10.0346C84.2201 10.0346 85.2262 11.1154 85.2262 12.7002C85.2273 14.3258 84.1881 15.4606 82.636 15.4606ZM82.679 10.8794C81.844 10.8794 81.309 11.6602 81.309 12.752C81.309 13.8229 81.8561 14.6037 82.6669 14.6037C83.481 14.6037 84.026 13.7688 84.026 12.73C84.0271 11.6712 83.4931 10.8794 82.679 10.8794ZM89.7843 15.3426L89.7004 14.7437H89.6695C89.3165 15.2257 88.8014 15.4606 88.1483 15.4606C87.2162 15.4606 86.5543 14.8077 86.5543 13.9298C86.5543 12.6462 87.6674 11.9822 89.5945 11.9822V11.8863C89.5945 11.2014 89.2316 10.8585 88.5146 10.8585C88.0016 10.8585 87.5515 10.9875 87.1555 11.2445L86.9205 10.4846C87.4015 10.1846 88.0016 10.0346 88.7065 10.0346C90.0656 10.0346 90.7517 10.7515 90.7517 12.1863V14.1019C90.7517 14.6268 90.7749 15.0338 90.8267 15.3437L89.7843 15.3426ZM89.6254 12.752C88.3414 12.752 87.6971 13.063 87.6971 13.8008C87.6971 14.3467 88.0292 14.6136 88.4903 14.6136C89.0783 14.6136 89.6254 14.1647 89.6254 13.5549V12.752ZM96.3655 15.3426L96.3114 14.5077H96.2794C95.9474 15.1385 95.3892 15.4606 94.6093 15.4606C93.3551 15.4606 92.4262 14.3577 92.4262 12.8061C92.4262 11.1794 93.3893 10.0335 94.7042 10.0335C95.4002 10.0335 95.8933 10.2684 96.1713 10.7405H96.1945V7.7551H97.3517V13.9409C97.3517 14.4438 97.3638 14.9147 97.3947 15.3426H96.3655ZM96.1945 12.2822C96.1945 11.5543 95.7124 10.9335 94.9767 10.9335C94.1195 10.9335 93.5955 11.6933 93.5955 12.7631C93.5955 13.8118 94.1394 14.5298 94.9535 14.5298C95.6805 14.5298 96.1945 13.8979 96.1945 13.149V12.2822ZM104.689 15.4606C103.17 15.4606 102.184 14.3258 102.184 12.7851C102.184 11.1794 103.191 10.0346 104.775 10.0346C106.274 10.0346 107.28 11.1154 107.28 12.7002C107.281 14.3258 106.243 15.4606 104.689 15.4606ZM104.732 10.8794C103.898 10.8794 103.363 11.6602 103.363 12.752C103.363 13.8229 103.909 14.6037 104.721 14.6037C105.535 14.6037 106.08 13.7688 106.08 12.73C106.082 11.6712 105.547 10.8794 104.732 10.8794ZM113.497 15.3426H112.34V12.3561C112.34 11.4363 111.987 10.9754 111.291 10.9754C110.606 10.9754 110.136 11.5643 110.136 12.2491V15.3426H108.979V11.6282C108.979 11.1684 108.968 10.6754 108.936 10.1405H109.953L110.007 10.9434H110.039C110.349 10.3876 110.981 10.0335 111.687 10.0335C112.779 10.0335 113.497 10.8684 113.497 12.2271V15.3426ZM121.275 11.0084H120.003V13.5339C120.003 14.1769 120.226 14.4978 120.676 14.4978C120.88 14.4978 121.051 14.4757 121.189 14.4438L121.221 15.3216C120.997 15.4076 120.697 15.4506 120.324 15.4506C119.413 15.4506 118.868 14.9478 118.868 13.631V11.0084H118.109V10.1416H118.868V9.18878L120.003 8.8458V10.1405H121.275V11.0084ZM127.395 15.3426H126.24V12.3782C126.24 11.4474 125.888 10.9765 125.191 10.9765C124.592 10.9765 124.034 11.3834 124.034 12.2072V15.3426H122.879V7.7551H124.034V10.8794H124.057C124.421 10.3126 124.948 10.0335 125.621 10.0335C126.722 10.0335 127.395 10.8893 127.395 12.2491V15.3426ZM133.665 13.02H130.196C130.218 14.0048 130.87 14.5607 131.835 14.5607C132.348 14.5607 132.82 14.4746 133.237 14.3147L133.417 15.1176C132.925 15.3315 132.346 15.4385 131.672 15.4385C130.045 15.4385 129.082 14.4107 129.082 12.8171C129.082 11.2224 130.068 10.0236 131.542 10.0236C132.871 10.0236 133.705 11.0084 133.705 12.4962C133.713 12.6717 133.699 12.8476 133.665 13.02ZM132.605 12.1962C132.605 11.3933 132.2 10.8265 131.461 10.8265C130.797 10.8265 130.272 11.4044 130.197 12.1962H132.605Z" fill="white"/>
</g>
<defs>
<linearGradient id="paint0_linear_2494_13112" x1="109.164" y1="44.7465" x2="109.164" y2="-114.303" gradientUnits="userSpaceOnUse">
<stop stop-color="#1A1A1A" stop-opacity="0.1"/>
<stop offset="0.123" stop-color="#212121" stop-opacity="0.151"/>
<stop offset="0.308" stop-color="#353535" stop-opacity="0.227"/>
<stop offset="0.532" stop-color="#575757" stop-opacity="0.318"/>
<stop offset="0.783" stop-color="#858585" stop-opacity="0.421"/>
<stop offset="1" stop-color="#B3B3B3" stop-opacity="0.51"/>
</linearGradient>
<clipPath id="clip0_2494_13112">
<rect width="149.353" height="44.6405" fill="white" transform="translate(0 0.0618286)"/>
</clipPath>
</defs>
</svg>
