<svg width="1300" height="410" viewBox="0 0 1300 410" fill="none" xmlns="http://www.w3.org/2000/svg">
<g filter="url(#filter0_d_2494_12971)">
<rect x="30" y="15" width="1240" height="350" rx="20" fill="url(#paint0_linear_2494_12971)" shape-rendering="crispEdges"/>
</g>
<path d="M128.048 135.4C130.384 135.4 132.448 135.848 134.24 136.744C136.032 137.608 137.52 138.824 138.704 140.392C139.92 141.928 140.832 143.72 141.44 145.768C142.048 147.784 142.352 149.928 142.352 152.2C142.352 155.304 141.808 158.136 140.72 160.696C139.632 163.224 138.032 165.24 135.92 166.744C133.808 168.248 131.184 169 128.048 169H116.336C115.664 169 115.088 168.776 114.608 168.328C114.128 167.848 113.888 167.256 113.888 166.552V137.848C113.888 137.144 114.128 136.568 114.608 136.12C115.088 135.64 115.664 135.4 116.336 135.4H128.048ZM127.568 164.392C129.84 164.392 131.68 163.832 133.088 162.712C134.496 161.592 135.52 160.12 136.16 158.296C136.832 156.44 137.168 154.408 137.168 152.2C137.168 150.568 136.976 149.032 136.592 147.592C136.24 146.12 135.664 144.824 134.864 143.704C134.096 142.552 133.104 141.656 131.888 141.016C130.704 140.344 129.264 140.008 127.568 140.008H118.496L118.928 139.576V164.872L118.64 164.392H127.568ZM172.516 156.376C172.516 158.936 171.956 161.208 170.836 163.192C169.716 165.144 168.196 166.68 166.276 167.8C164.356 168.92 162.196 169.48 159.796 169.48C157.396 169.48 155.236 168.92 153.316 167.8C151.396 166.68 149.86 165.144 148.708 163.192C147.588 161.208 147.028 158.936 147.028 156.376C147.028 153.784 147.588 151.512 148.708 149.56C149.86 147.576 151.396 146.024 153.316 144.904C155.236 143.752 157.396 143.176 159.796 143.176C162.196 143.176 164.356 143.752 166.276 144.904C168.196 146.024 169.716 147.576 170.836 149.56C171.956 151.512 172.516 153.784 172.516 156.376ZM167.716 156.376C167.716 154.616 167.364 153.096 166.66 151.816C165.956 150.504 164.996 149.48 163.78 148.744C162.596 147.976 161.268 147.592 159.796 147.592C158.324 147.592 156.98 147.976 155.764 148.744C154.548 149.48 153.588 150.504 152.884 151.816C152.18 153.096 151.828 154.616 151.828 156.376C151.828 158.072 152.18 159.576 152.884 160.888C153.588 162.2 154.548 163.224 155.764 163.96C156.98 164.696 158.324 165.064 159.796 165.064C161.268 165.064 162.596 164.696 163.78 163.96C164.996 163.224 165.956 162.2 166.66 160.888C167.364 159.576 167.716 158.072 167.716 156.376ZM207.603 143.512C208.211 143.512 208.739 143.752 209.187 144.232C209.667 144.68 209.907 145.272 209.907 146.008C209.907 146.168 209.891 146.328 209.859 146.488C209.827 146.648 209.779 146.792 209.715 146.92L202.371 167.464C202.179 168.008 201.843 168.424 201.363 168.712C200.883 168.968 200.387 169.064 199.875 169C198.947 168.936 198.259 168.424 197.811 167.464L192.387 153.064L193.491 153.16L188.499 167.464C188.051 168.424 187.363 168.936 186.435 169C185.955 169.064 185.459 168.968 184.947 168.712C184.467 168.424 184.131 168.008 183.939 167.464L176.547 146.92C176.419 146.632 176.355 146.328 176.355 146.008C176.355 145.336 176.563 144.76 176.979 144.28C177.427 143.768 178.019 143.512 178.755 143.512C179.267 143.512 179.715 143.64 180.099 143.896C180.515 144.152 180.803 144.536 180.963 145.048L187.107 162.376L186.003 162.28L190.995 149.176C191.411 148.184 192.147 147.688 193.203 147.688C193.779 147.688 194.227 147.816 194.547 148.072C194.867 148.328 195.123 148.696 195.315 149.176L200.403 162.328L199.107 162.472L205.299 145.048C205.619 144.024 206.387 143.512 207.603 143.512ZM228.027 143.176C230.299 143.176 232.059 143.656 233.307 144.616C234.555 145.544 235.419 146.808 235.899 148.408C236.411 149.976 236.667 151.736 236.667 153.688V166.552C236.667 167.256 236.427 167.848 235.947 168.328C235.499 168.776 234.939 169 234.267 169C233.563 169 232.987 168.776 232.539 168.328C232.091 167.848 231.867 167.256 231.867 166.552V153.736C231.867 152.584 231.707 151.56 231.387 150.664C231.067 149.736 230.507 149 229.707 148.456C228.939 147.88 227.851 147.592 226.443 147.592C225.131 147.592 223.979 147.88 222.987 148.456C221.995 149 221.211 149.736 220.635 150.664C220.091 151.56 219.819 152.584 219.819 153.736V166.552C219.819 167.256 219.579 167.848 219.099 168.328C218.651 168.776 218.091 169 217.419 169C216.715 169 216.139 168.776 215.691 168.328C215.243 167.848 215.019 167.256 215.019 166.552V146.2C215.019 145.496 215.243 144.92 215.691 144.472C216.139 143.992 216.715 143.752 217.419 143.752C218.091 143.752 218.651 143.992 219.099 144.472C219.579 144.92 219.819 145.496 219.819 146.2V148.888L218.955 149.368C219.179 148.664 219.563 147.96 220.107 147.256C220.683 146.52 221.371 145.848 222.171 145.24C222.971 144.6 223.867 144.104 224.859 143.752C225.851 143.368 226.907 143.176 228.027 143.176ZM248.745 166.552C248.745 167.256 248.505 167.848 248.025 168.328C247.577 168.776 247.017 169 246.345 169C245.673 169 245.097 168.776 244.617 168.328C244.169 167.848 243.945 167.256 243.945 166.552V135.928C243.945 135.224 244.185 134.648 244.665 134.2C245.145 133.72 245.721 133.48 246.393 133.48C247.097 133.48 247.657 133.72 248.073 134.2C248.521 134.648 248.745 135.224 248.745 135.928V166.552ZM279.843 156.376C279.843 158.936 279.283 161.208 278.163 163.192C277.043 165.144 275.523 166.68 273.603 167.8C271.683 168.92 269.523 169.48 267.123 169.48C264.723 169.48 262.563 168.92 260.643 167.8C258.723 166.68 257.187 165.144 256.035 163.192C254.915 161.208 254.355 158.936 254.355 156.376C254.355 153.784 254.915 151.512 256.035 149.56C257.187 147.576 258.723 146.024 260.643 144.904C262.563 143.752 264.723 143.176 267.123 143.176C269.523 143.176 271.683 143.752 273.603 144.904C275.523 146.024 277.043 147.576 278.163 149.56C279.283 151.512 279.843 153.784 279.843 156.376ZM275.043 156.376C275.043 154.616 274.691 153.096 273.987 151.816C273.283 150.504 272.323 149.48 271.107 148.744C269.923 147.976 268.595 147.592 267.123 147.592C265.651 147.592 264.307 147.976 263.091 148.744C261.875 149.48 260.915 150.504 260.211 151.816C259.507 153.096 259.155 154.616 259.155 156.376C259.155 158.072 259.507 159.576 260.211 160.888C260.915 162.2 261.875 163.224 263.091 163.96C264.307 164.696 265.651 165.064 267.123 165.064C268.595 165.064 269.923 164.696 271.107 163.96C272.323 163.224 273.283 162.2 273.987 160.888C274.691 159.576 275.043 158.072 275.043 156.376ZM306.194 143.368C306.898 143.368 307.474 143.608 307.922 144.088C308.37 144.536 308.594 145.112 308.594 145.816V166.552C308.594 167.256 308.37 167.848 307.922 168.328C307.474 168.776 306.898 169 306.194 169C305.522 169 304.946 168.776 304.466 168.328C304.018 167.848 303.794 167.256 303.794 166.552V163.096L304.802 163.24C304.802 163.816 304.562 164.456 304.082 165.16C303.634 165.864 303.01 166.552 302.21 167.224C301.41 167.864 300.466 168.408 299.378 168.856C298.29 169.272 297.122 169.48 295.874 169.48C293.666 169.48 291.682 168.92 289.922 167.8C288.162 166.648 286.77 165.08 285.746 163.096C284.722 161.112 284.21 158.856 284.21 156.328C284.21 153.736 284.722 151.464 285.746 149.512C286.77 147.528 288.146 145.976 289.874 144.856C291.634 143.736 293.586 143.176 295.73 143.176C297.106 143.176 298.37 143.4 299.522 143.848C300.706 144.296 301.73 144.872 302.594 145.576C303.458 146.28 304.114 147.032 304.562 147.832C305.042 148.6 305.282 149.336 305.282 150.04L303.794 150.184V145.816C303.794 145.144 304.018 144.568 304.466 144.088C304.946 143.608 305.522 143.368 306.194 143.368ZM296.402 165.064C297.906 165.064 299.234 164.68 300.386 163.912C301.538 163.144 302.434 162.104 303.074 160.792C303.714 159.448 304.034 157.96 304.034 156.328C304.034 154.664 303.714 153.176 303.074 151.864C302.434 150.552 301.538 149.512 300.386 148.744C299.234 147.976 297.906 147.592 296.402 147.592C294.93 147.592 293.618 147.976 292.466 148.744C291.346 149.512 290.45 150.552 289.778 151.864C289.138 153.176 288.818 154.664 288.818 156.328C288.818 157.96 289.138 159.448 289.778 160.792C290.45 162.104 291.346 163.144 292.466 163.912C293.618 164.68 294.93 165.064 296.402 165.064ZM336.236 133.48C336.94 133.48 337.516 133.704 337.964 134.152C338.412 134.6 338.636 135.192 338.636 135.928V166.552C338.636 167.256 338.412 167.848 337.964 168.328C337.516 168.776 336.94 169 336.236 169C335.564 169 334.988 168.776 334.508 168.328C334.06 167.848 333.836 167.256 333.836 166.552V163.096L334.844 163.144C334.844 163.72 334.604 164.376 334.124 165.112C333.676 165.816 333.052 166.504 332.252 167.176C331.452 167.848 330.508 168.408 329.42 168.856C328.332 169.272 327.164 169.48 325.916 169.48C323.708 169.48 321.724 168.92 319.964 167.8C318.204 166.648 316.812 165.096 315.788 163.144C314.764 161.16 314.252 158.888 314.252 156.328C314.252 153.768 314.764 151.512 315.788 149.56C316.812 147.576 318.188 146.024 319.916 144.904C321.676 143.752 323.628 143.176 325.772 143.176C327.116 143.176 328.364 143.4 329.516 143.848C330.7 144.296 331.724 144.872 332.588 145.576C333.452 146.28 334.124 147.032 334.604 147.832C335.084 148.6 335.324 149.336 335.324 150.04L333.836 150.184V135.928C333.836 135.224 334.06 134.648 334.508 134.2C334.988 133.72 335.564 133.48 336.236 133.48ZM326.444 165.064C327.98 165.064 329.308 164.68 330.428 163.912C331.58 163.144 332.476 162.104 333.116 160.792C333.756 159.48 334.076 157.992 334.076 156.328C334.076 154.664 333.756 153.176 333.116 151.864C332.476 150.552 331.58 149.512 330.428 148.744C329.276 147.976 327.948 147.592 326.444 147.592C324.972 147.592 323.66 147.976 322.508 148.744C321.388 149.512 320.492 150.552 319.82 151.864C319.18 153.176 318.86 154.664 318.86 156.328C318.86 157.992 319.18 159.48 319.82 160.792C320.492 162.104 321.388 163.144 322.508 163.912C323.66 164.68 324.972 165.064 326.444 165.064ZM358.844 144.04H370.124C370.764 144.04 371.292 144.264 371.708 144.712C372.156 145.128 372.38 145.656 372.38 146.296C372.38 146.904 372.156 147.416 371.708 147.832C371.292 148.248 370.764 148.456 370.124 148.456H358.844C358.204 148.456 357.66 148.248 357.212 147.832C356.796 147.384 356.588 146.856 356.588 146.248C356.588 145.608 356.796 145.08 357.212 144.664C357.66 144.248 358.204 144.04 358.844 144.04ZM363.884 137.8C364.588 137.8 365.164 138.04 365.612 138.52C366.06 138.968 366.284 139.544 366.284 140.248V162.52C366.284 163.096 366.38 163.56 366.572 163.912C366.764 164.264 367.02 164.504 367.34 164.632C367.692 164.76 368.044 164.824 368.396 164.824C368.748 164.824 369.052 164.76 369.308 164.632C369.596 164.504 369.932 164.44 370.316 164.44C370.7 164.44 371.052 164.616 371.372 164.968C371.692 165.32 371.852 165.8 371.852 166.408C371.852 167.176 371.436 167.8 370.604 168.28C369.772 168.76 368.876 169 367.916 169C367.372 169 366.732 168.952 365.996 168.856C365.26 168.76 364.54 168.52 363.836 168.136C363.164 167.752 362.604 167.144 362.156 166.312C361.708 165.448 361.484 164.248 361.484 162.712V140.248C361.484 139.544 361.708 138.968 362.156 138.52C362.636 138.04 363.212 137.8 363.884 137.8ZM401.883 156.376C401.883 158.936 401.323 161.208 400.203 163.192C399.083 165.144 397.563 166.68 395.643 167.8C393.723 168.92 391.563 169.48 389.163 169.48C386.763 169.48 384.603 168.92 382.683 167.8C380.763 166.68 379.227 165.144 378.075 163.192C376.955 161.208 376.395 158.936 376.395 156.376C376.395 153.784 376.955 151.512 378.075 149.56C379.227 147.576 380.763 146.024 382.683 144.904C384.603 143.752 386.763 143.176 389.163 143.176C391.563 143.176 393.723 143.752 395.643 144.904C397.563 146.024 399.083 147.576 400.203 149.56C401.323 151.512 401.883 153.784 401.883 156.376ZM397.083 156.376C397.083 154.616 396.731 153.096 396.027 151.816C395.323 150.504 394.363 149.48 393.147 148.744C391.963 147.976 390.635 147.592 389.163 147.592C387.691 147.592 386.347 147.976 385.131 148.744C383.915 149.48 382.955 150.504 382.251 151.816C381.547 153.096 381.195 154.616 381.195 156.376C381.195 158.072 381.547 159.576 382.251 160.888C382.955 162.2 383.915 163.224 385.131 163.96C386.347 164.696 387.691 165.064 389.163 165.064C390.635 165.064 391.963 164.696 393.147 163.96C394.363 163.224 395.323 162.2 396.027 160.888C396.731 159.576 397.083 158.072 397.083 156.376ZM439.904 143.56C440.608 143.56 441.184 143.8 441.632 144.28C442.08 144.728 442.304 145.304 442.304 146.008V166.648C442.304 169.464 441.76 171.752 440.672 173.512C439.616 175.272 438.176 176.552 436.352 177.352C434.56 178.184 432.528 178.6 430.256 178.6C429.104 178.6 427.952 178.488 426.8 178.264C425.648 178.072 424.704 177.784 423.968 177.4C423.2 177.048 422.656 176.616 422.336 176.104C422.016 175.592 421.968 175.032 422.192 174.424C422.416 173.656 422.8 173.128 423.344 172.84C423.888 172.584 424.448 172.568 425.024 172.792C425.568 173.016 426.288 173.304 427.184 173.656C428.08 174.008 429.104 174.184 430.256 174.184C431.824 174.184 433.152 173.928 434.24 173.416C435.328 172.904 436.144 172.104 436.688 171.016C437.264 169.928 437.552 168.52 437.552 166.792V163.48L438.32 164.632C437.808 165.688 437.136 166.568 436.304 167.272C435.472 167.976 434.48 168.52 433.328 168.904C432.208 169.288 430.96 169.48 429.584 169.48C427.824 169.48 426.304 169.096 425.024 168.328C423.776 167.528 422.816 166.44 422.144 165.064C421.472 163.656 421.136 162.056 421.136 160.264V146.008C421.136 145.304 421.36 144.728 421.808 144.28C422.256 143.8 422.832 143.56 423.536 143.56C424.208 143.56 424.768 143.8 425.216 144.28C425.696 144.728 425.936 145.304 425.936 146.008V158.968C425.936 161.08 426.4 162.632 427.328 163.624C428.256 164.584 429.632 165.064 431.456 165.064C432.672 165.064 433.728 164.808 434.624 164.296C435.52 163.784 436.224 163.08 436.736 162.184C437.248 161.256 437.504 160.184 437.504 158.968V146.008C437.504 145.304 437.728 144.728 438.176 144.28C438.656 143.8 439.232 143.56 439.904 143.56ZM473.214 156.376C473.214 158.936 472.654 161.208 471.534 163.192C470.414 165.144 468.894 166.68 466.974 167.8C465.054 168.92 462.894 169.48 460.494 169.48C458.094 169.48 455.934 168.92 454.014 167.8C452.094 166.68 450.558 165.144 449.406 163.192C448.286 161.208 447.726 158.936 447.726 156.376C447.726 153.784 448.286 151.512 449.406 149.56C450.558 147.576 452.094 146.024 454.014 144.904C455.934 143.752 458.094 143.176 460.494 143.176C462.894 143.176 465.054 143.752 466.974 144.904C468.894 146.024 470.414 147.576 471.534 149.56C472.654 151.512 473.214 153.784 473.214 156.376ZM468.414 156.376C468.414 154.616 468.062 153.096 467.358 151.816C466.654 150.504 465.694 149.48 464.478 148.744C463.294 147.976 461.966 147.592 460.494 147.592C459.022 147.592 457.678 147.976 456.462 148.744C455.246 149.48 454.286 150.504 453.582 151.816C452.878 153.096 452.526 154.616 452.526 156.376C452.526 158.072 452.878 159.576 453.582 160.888C454.286 162.2 455.246 163.224 456.462 163.96C457.678 164.696 459.022 165.064 460.494 165.064C461.966 165.064 463.294 164.696 464.478 163.96C465.694 163.224 466.654 162.2 467.358 160.888C468.062 159.576 468.414 158.072 468.414 156.376ZM497.693 143.752C498.365 143.752 498.925 143.992 499.373 144.472C499.853 144.92 500.093 145.496 500.093 146.2V158.824C500.093 162.152 499.165 164.76 497.309 166.648C495.453 168.504 492.829 169.432 489.437 169.432C486.077 169.432 483.469 168.504 481.613 166.648C479.789 164.76 478.877 162.152 478.877 158.824V146.2C478.877 145.496 479.101 144.92 479.549 144.472C479.997 143.992 480.573 143.752 481.277 143.752C481.949 143.752 482.509 143.992 482.957 144.472C483.437 144.92 483.677 145.496 483.677 146.2V158.824C483.677 160.904 484.157 162.456 485.117 163.48C486.109 164.504 487.549 165.016 489.437 165.016C491.357 165.016 492.813 164.504 493.805 163.48C494.797 162.456 495.293 160.904 495.293 158.824V146.2C495.293 145.496 495.517 144.92 495.965 144.472C496.413 143.992 496.989 143.752 497.693 143.752ZM509.398 169C508.694 169 508.118 168.776 507.67 168.328C507.222 167.848 506.998 167.256 506.998 166.552V146.2C506.998 145.496 507.222 144.92 507.67 144.472C508.118 143.992 508.694 143.752 509.398 143.752C510.07 143.752 510.63 143.992 511.078 144.472C511.558 144.92 511.798 145.496 511.798 146.2V151.576L511.318 149.512C511.574 148.616 511.958 147.784 512.47 147.016C513.014 146.248 513.654 145.576 514.39 145C515.126 144.424 515.942 143.976 516.838 143.656C517.766 143.336 518.726 143.176 519.718 143.176C520.55 143.176 521.27 143.4 521.878 143.848C522.486 144.296 522.79 144.856 522.79 145.528C522.79 146.392 522.566 147.032 522.118 147.448C521.67 147.832 521.174 148.024 520.63 148.024C520.15 148.024 519.686 147.928 519.238 147.736C518.79 147.512 518.262 147.4 517.654 147.4C516.982 147.4 516.294 147.576 515.59 147.928C514.886 148.28 514.246 148.808 513.67 149.512C513.094 150.184 512.63 150.984 512.278 151.912C511.958 152.84 511.798 153.88 511.798 155.032V166.552C511.798 167.256 511.558 167.848 511.078 168.328C510.63 168.776 510.07 169 509.398 169ZM561.567 133.48C562.271 133.48 562.847 133.704 563.295 134.152C563.743 134.6 563.967 135.192 563.967 135.928V166.552C563.967 167.256 563.743 167.848 563.295 168.328C562.847 168.776 562.271 169 561.567 169C560.895 169 560.319 168.776 559.839 168.328C559.391 167.848 559.167 167.256 559.167 166.552V163.096L560.175 163.144C560.175 163.72 559.935 164.376 559.455 165.112C559.007 165.816 558.383 166.504 557.583 167.176C556.783 167.848 555.839 168.408 554.751 168.856C553.663 169.272 552.495 169.48 551.247 169.48C549.039 169.48 547.055 168.92 545.295 167.8C543.535 166.648 542.143 165.096 541.119 163.144C540.095 161.16 539.583 158.888 539.583 156.328C539.583 153.768 540.095 151.512 541.119 149.56C542.143 147.576 543.519 146.024 545.247 144.904C547.007 143.752 548.959 143.176 551.103 143.176C552.447 143.176 553.695 143.4 554.847 143.848C556.031 144.296 557.055 144.872 557.919 145.576C558.783 146.28 559.455 147.032 559.935 147.832C560.415 148.6 560.655 149.336 560.655 150.04L559.167 150.184V135.928C559.167 135.224 559.391 134.648 559.839 134.2C560.319 133.72 560.895 133.48 561.567 133.48ZM551.775 165.064C553.311 165.064 554.639 164.68 555.759 163.912C556.911 163.144 557.807 162.104 558.447 160.792C559.087 159.48 559.407 157.992 559.407 156.328C559.407 154.664 559.087 153.176 558.447 151.864C557.807 150.552 556.911 149.512 555.759 148.744C554.607 147.976 553.279 147.592 551.775 147.592C550.303 147.592 548.991 147.976 547.839 148.744C546.719 149.512 545.823 150.552 545.151 151.864C544.511 153.176 544.191 154.664 544.191 156.328C544.191 157.992 544.511 159.48 545.151 160.792C545.823 162.104 546.719 163.144 547.839 163.912C548.991 164.68 550.303 165.064 551.775 165.064ZM582.682 169.48C580.026 169.48 577.722 168.936 575.77 167.848C573.818 166.728 572.298 165.208 571.21 163.288C570.154 161.336 569.626 159.112 569.626 156.616C569.626 153.8 570.186 151.4 571.306 149.416C572.458 147.4 573.946 145.864 575.77 144.808C577.594 143.72 579.53 143.176 581.578 143.176C583.146 143.176 584.634 143.496 586.042 144.136C587.45 144.744 588.698 145.608 589.786 146.728C590.906 147.816 591.786 149.112 592.426 150.616C593.066 152.088 593.402 153.704 593.434 155.464C593.402 156.104 593.146 156.632 592.666 157.048C592.186 157.464 591.626 157.672 590.986 157.672H572.314L571.162 153.592H589.21L588.298 154.456V153.256C588.234 152.136 587.866 151.16 587.194 150.328C586.522 149.464 585.69 148.808 584.698 148.36C583.706 147.88 582.666 147.64 581.578 147.64C580.618 147.64 579.69 147.8 578.794 148.12C577.93 148.408 577.146 148.888 576.442 149.56C575.77 150.232 575.226 151.128 574.81 152.248C574.426 153.336 574.234 154.696 574.234 156.328C574.234 158.088 574.602 159.624 575.338 160.936C576.074 162.248 577.066 163.272 578.314 164.008C579.562 164.712 580.938 165.064 582.442 165.064C583.626 165.064 584.602 164.952 585.37 164.728C586.138 164.472 586.778 164.168 587.29 163.816C587.802 163.464 588.25 163.128 588.634 162.808C589.114 162.52 589.594 162.376 590.074 162.376C590.65 162.376 591.13 162.584 591.514 163C591.898 163.384 592.09 163.848 592.09 164.392C592.09 165.096 591.738 165.736 591.034 166.312C590.17 167.144 588.97 167.88 587.434 168.52C585.93 169.16 584.346 169.48 582.682 169.48ZM599.431 143.512C599.911 143.512 600.359 143.64 600.775 143.896C601.223 144.152 601.543 144.536 601.735 145.048L609.271 162.472L608.359 162.904L615.991 145.096C616.439 144.04 617.159 143.528 618.151 143.56C618.791 143.56 619.319 143.768 619.735 144.184C620.183 144.568 620.407 145.08 620.407 145.72C620.407 145.912 620.375 146.12 620.311 146.344C620.247 146.536 620.167 146.728 620.071 146.92L610.951 167.464C610.535 168.424 609.847 168.936 608.887 169C608.407 169.064 607.927 168.968 607.447 168.712C606.999 168.424 606.647 168.008 606.391 167.464L597.319 146.92C597.255 146.792 597.191 146.632 597.127 146.44C597.063 146.216 597.031 145.96 597.031 145.672C597.031 145.192 597.239 144.712 597.655 144.232C598.103 143.752 598.695 143.512 599.431 143.512ZM630.034 166.552C630.034 167.256 629.81 167.848 629.362 168.328C628.914 168.776 628.338 169 627.634 169C626.962 169 626.386 168.776 625.906 168.328C625.458 167.848 625.234 167.256 625.234 166.552V146.008C625.234 145.304 625.458 144.728 625.906 144.28C626.386 143.8 626.962 143.56 627.634 143.56C628.338 143.56 628.914 143.8 629.362 144.28C629.81 144.728 630.034 145.304 630.034 146.008V166.552ZM627.586 140.392C626.658 140.392 625.986 140.232 625.57 139.912C625.154 139.56 624.946 138.984 624.946 138.184V137.416C624.946 136.616 625.17 136.056 625.618 135.736C626.066 135.416 626.738 135.256 627.634 135.256C628.594 135.256 629.282 135.432 629.698 135.784C630.114 136.104 630.322 136.648 630.322 137.416V138.184C630.322 139.016 630.098 139.592 629.65 139.912C629.234 140.232 628.546 140.392 627.586 140.392ZM647.905 143.176C649.633 143.176 651.169 143.368 652.513 143.752C653.857 144.104 654.897 144.616 655.633 145.288C656.401 145.928 656.785 146.68 656.785 147.544C656.785 148.088 656.625 148.6 656.305 149.08C655.985 149.528 655.505 149.752 654.865 149.752C654.417 149.752 654.033 149.672 653.713 149.512C653.425 149.352 653.153 149.16 652.897 148.936C652.641 148.712 652.321 148.488 651.937 148.264C651.585 148.072 651.057 147.912 650.353 147.784C649.681 147.656 649.073 147.592 648.529 147.592C646.833 147.592 645.361 147.976 644.113 148.744C642.897 149.512 641.937 150.552 641.233 151.864C640.561 153.176 640.225 154.664 640.225 156.328C640.225 157.992 640.561 159.48 641.233 160.792C641.937 162.104 642.881 163.144 644.065 163.912C645.281 164.68 646.689 165.064 648.289 165.064C649.249 165.064 650.033 165 650.641 164.872C651.249 164.712 651.777 164.52 652.225 164.296C652.705 164.008 653.105 163.72 653.425 163.432C653.777 163.112 654.257 162.952 654.865 162.952C655.569 162.952 656.097 163.176 656.449 163.624C656.833 164.04 657.025 164.568 657.025 165.208C657.025 165.912 656.593 166.6 655.729 167.272C654.897 167.912 653.777 168.44 652.369 168.856C650.961 169.272 649.409 169.48 647.713 169.48C645.217 169.48 643.041 168.904 641.185 167.752C639.361 166.6 637.937 165.032 636.913 163.048C635.921 161.064 635.425 158.824 635.425 156.328C635.425 153.8 635.953 151.56 637.009 149.608C638.065 147.624 639.537 146.056 641.425 144.904C643.313 143.752 645.473 143.176 647.905 143.176ZM673.602 169.48C670.946 169.48 668.642 168.936 666.69 167.848C664.738 166.728 663.218 165.208 662.13 163.288C661.074 161.336 660.546 159.112 660.546 156.616C660.546 153.8 661.106 151.4 662.226 149.416C663.378 147.4 664.866 145.864 666.69 144.808C668.514 143.72 670.45 143.176 672.498 143.176C674.066 143.176 675.554 143.496 676.962 144.136C678.37 144.744 679.618 145.608 680.706 146.728C681.826 147.816 682.706 149.112 683.346 150.616C683.986 152.088 684.322 153.704 684.354 155.464C684.322 156.104 684.066 156.632 683.586 157.048C683.106 157.464 682.546 157.672 681.906 157.672H663.234L662.082 153.592H680.13L679.218 154.456V153.256C679.154 152.136 678.786 151.16 678.114 150.328C677.442 149.464 676.61 148.808 675.618 148.36C674.626 147.88 673.586 147.64 672.498 147.64C671.538 147.64 670.61 147.8 669.714 148.12C668.85 148.408 668.066 148.888 667.362 149.56C666.69 150.232 666.146 151.128 665.73 152.248C665.346 153.336 665.154 154.696 665.154 156.328C665.154 158.088 665.522 159.624 666.258 160.936C666.994 162.248 667.986 163.272 669.234 164.008C670.482 164.712 671.858 165.064 673.362 165.064C674.546 165.064 675.522 164.952 676.29 164.728C677.058 164.472 677.698 164.168 678.21 163.816C678.722 163.464 679.17 163.128 679.554 162.808C680.034 162.52 680.514 162.376 680.994 162.376C681.57 162.376 682.05 162.584 682.434 163C682.818 163.384 683.01 163.848 683.01 164.392C683.01 165.096 682.658 165.736 681.954 166.312C681.09 167.144 679.89 167.88 678.354 168.52C676.85 169.16 675.266 169.48 673.602 169.48Z" fill="black"/>
<g clip-path="url(#clip0_2494_12971)">
<path d="M298.008 251.051C298.008 251.757 297.869 252.456 297.599 253.108C297.329 253.76 296.932 254.352 296.433 254.851C295.933 255.35 295.341 255.745 294.688 256.015C294.036 256.284 293.336 256.423 292.63 256.422H116.633C115.207 256.423 113.838 255.858 112.828 254.851C111.819 253.844 111.25 252.477 111.248 251.051V208.219C111.25 206.792 111.818 205.425 112.828 204.416C113.838 203.408 115.206 202.842 116.633 202.841H292.629C293.335 202.841 294.035 202.98 294.687 203.251C295.34 203.521 295.933 203.917 296.432 204.417C296.932 204.916 297.328 205.509 297.598 206.161C297.868 206.814 298.007 207.513 298.007 208.219L298.008 251.051Z" fill="white"/>
<path d="M292.63 257.671H116.633C114.876 257.671 113.191 256.974 111.947 255.733C110.704 254.491 110.003 252.808 110 251.051V208.221C110.003 206.463 110.702 204.778 111.946 203.536C113.19 202.293 114.875 201.595 116.633 201.593H292.629C294.387 201.595 296.072 202.294 297.316 203.536C298.559 204.779 299.259 206.463 299.263 208.221V251.051C299.265 254.703 296.285 257.671 292.63 257.671Z" fill="#A6A6A6"/>
<path d="M298.008 251.051C298.008 251.757 297.869 252.456 297.599 253.108C297.329 253.76 296.932 254.352 296.433 254.851C295.933 255.35 295.341 255.745 294.688 256.015C294.036 256.284 293.336 256.423 292.63 256.422H116.633C115.207 256.423 113.838 255.858 112.828 254.851C111.819 253.844 111.25 252.477 111.248 251.051V208.219C111.25 206.792 111.818 205.425 112.828 204.416C113.838 203.408 115.206 202.842 116.633 202.841H292.629C293.335 202.841 294.035 202.98 294.687 203.251C295.34 203.521 295.933 203.917 296.432 204.417C296.932 204.916 297.328 205.509 297.598 206.161C297.868 206.814 298.007 207.513 298.007 208.219L298.008 251.051Z" fill="black"/>
<path d="M152.261 229.337C152.22 224.817 155.963 222.618 156.134 222.516C154.014 219.427 150.729 219.005 149.575 218.971C146.816 218.681 144.139 220.621 142.734 220.621C141.3 220.621 139.136 218.999 136.803 219.047C133.801 219.093 130.993 220.83 129.453 223.529C126.274 229.03 128.645 237.114 131.69 241.561C133.213 243.74 134.993 246.171 137.323 246.085C139.603 245.993 140.454 244.634 143.205 244.634C145.93 244.634 146.73 246.085 149.106 246.031C151.553 245.993 153.093 243.843 154.563 241.645C156.323 239.151 157.03 236.691 157.058 236.565C157.002 236.545 152.309 234.753 152.261 229.337ZM147.772 216.046C148.998 214.513 149.837 212.428 149.604 210.311C147.83 210.39 145.611 211.539 144.333 213.038C143.202 214.359 142.192 216.524 142.453 218.56C144.446 218.709 146.493 217.555 147.772 216.046Z" fill="white"/>
<path d="M292.63 201.593H198.361L235.285 257.671H292.63C294.388 257.67 296.073 256.972 297.317 255.73C298.56 254.488 299.261 252.804 299.264 251.047V208.221C299.261 206.463 298.561 204.778 297.317 203.536C296.074 202.294 294.388 201.595 292.63 201.593V201.593Z" fill="url(#paint1_linear_2494_12971)"/>
<path d="M185.277 245.773H182.091L180.346 240.291H174.281L172.619 245.773H169.517L175.528 227.11H179.239L185.277 245.773ZM179.82 237.991L178.242 233.118C178.075 232.62 177.761 231.448 177.301 229.602H177.245C177.06 230.396 176.764 231.568 176.358 233.118L174.807 237.991H179.82ZM200.704 238.879C200.704 241.167 200.082 242.976 198.838 244.304C197.724 245.486 196.34 246.077 194.689 246.077C192.906 246.077 191.624 245.442 190.845 244.168V251.229H187.855V236.739C187.855 235.301 187.817 233.827 187.744 232.316H190.374L190.541 234.449H190.597C191.594 232.842 193.108 232.038 195.139 232.038C196.727 232.038 198.053 232.665 199.113 233.92C200.172 235.178 200.704 236.83 200.704 238.879ZM197.657 238.988C197.657 237.678 197.362 236.598 196.77 235.747C196.124 234.862 195.256 234.419 194.167 234.419C193.429 234.419 192.759 234.666 192.16 235.153C191.559 235.643 191.167 236.284 190.983 237.078C190.901 237.375 190.854 237.68 190.844 237.988V240.233C190.844 241.211 191.144 242.037 191.745 242.713C192.345 243.386 193.125 243.724 194.084 243.724C195.211 243.724 196.087 243.288 196.714 242.422C197.343 241.554 197.657 240.41 197.657 238.988ZM216.185 238.879C216.185 241.167 215.564 242.976 214.32 244.304C213.205 245.486 211.822 246.077 210.169 246.077C208.386 246.077 207.104 245.442 206.326 244.168V251.229H203.335V236.739C203.335 235.301 203.297 233.827 203.224 232.316H205.854L206.021 234.449H206.077C207.073 232.842 208.587 232.038 210.619 232.038C212.206 232.038 213.531 232.665 214.595 233.92C215.652 235.178 216.185 236.83 216.185 238.879ZM213.137 238.988C213.137 237.678 212.841 236.598 212.249 235.747C211.603 234.862 210.737 234.419 209.649 234.419C208.911 234.419 208.24 234.666 207.639 235.153C207.038 235.643 206.647 236.284 206.463 237.078C206.372 237.448 206.323 237.75 206.323 237.988V240.233C206.323 241.211 206.625 242.037 207.222 242.713C207.822 243.384 208.602 243.724 209.565 243.724C210.692 243.724 211.569 243.288 212.195 242.422C212.823 241.554 213.137 240.41 213.137 238.988ZM233.495 240.538C233.495 242.126 232.939 243.418 231.835 244.415C230.621 245.503 228.925 246.049 226.751 246.049C224.742 246.049 223.132 245.662 221.917 244.886L222.608 242.394C223.92 243.171 225.361 243.558 226.929 243.558C228.057 243.558 228.933 243.303 229.559 242.797C230.186 242.289 230.503 241.61 230.503 240.763C230.503 240.005 230.241 239.369 229.726 238.852C229.208 238.336 228.353 237.855 227.15 237.413C223.882 236.195 222.247 234.412 222.247 232.067C222.247 230.536 222.824 229.282 223.977 228.302C225.131 227.323 226.659 226.834 228.562 226.834C230.26 226.834 231.676 227.13 232.799 227.72L232.049 230.157C230.991 229.585 229.797 229.299 228.462 229.299C227.407 229.299 226.58 229.559 225.988 230.075C225.49 230.536 225.237 231.098 225.237 231.766C225.237 232.502 225.525 233.114 226.097 233.593C226.594 234.035 227.5 234.516 228.81 235.032C230.417 235.68 231.598 236.434 232.354 237.301C233.116 238.168 233.495 239.249 233.495 240.538ZM243.408 234.559H240.111V241.093C240.111 242.755 240.692 243.583 241.856 243.583C242.391 243.583 242.834 243.539 243.185 243.445L243.268 245.715C242.678 245.935 241.903 246.046 240.942 246.046C239.761 246.046 238.838 245.686 238.172 244.965C237.508 244.244 237.174 243.037 237.174 241.337V234.554H235.21V232.31H237.174V229.846L240.111 228.96V232.31H243.408V234.559ZM258.251 238.933C258.251 241.002 257.659 242.7 256.478 244.028C255.243 245.395 253.599 246.077 251.549 246.077C249.571 246.077 247.999 245.422 246.826 244.114C245.654 242.802 245.067 241.15 245.067 239.158C245.067 237.072 245.673 235.364 246.881 234.036C248.092 232.707 249.721 232.042 251.771 232.042C253.746 232.042 255.332 232.699 256.533 234.008C257.68 235.279 258.251 236.92 258.251 238.933ZM255.151 239.002C255.151 237.769 254.885 236.712 254.35 235.827C253.723 234.759 252.826 234.224 251.663 234.224C250.465 234.224 249.546 234.759 248.921 235.827C248.385 236.712 248.118 237.788 248.118 239.058C248.118 240.292 248.385 241.352 248.921 242.234C249.567 243.303 250.469 243.837 251.638 243.837C252.781 243.837 253.677 243.292 254.325 242.208C254.875 241.302 255.151 240.238 255.151 239.002ZM267.976 234.945C267.665 234.889 267.35 234.861 267.034 234.862C265.982 234.862 265.168 235.258 264.596 236.054C264.099 236.755 263.85 237.642 263.85 238.712V245.773H260.859V236.554C260.862 235.141 260.833 233.728 260.772 232.317H263.377L263.486 234.892H263.569C263.886 234.007 264.383 233.293 265.064 232.759C265.688 232.292 266.447 232.039 267.226 232.038C267.502 232.038 267.752 232.058 267.974 232.093L267.976 234.945ZM281.351 238.407C281.359 238.862 281.322 239.316 281.242 239.764H272.27C272.304 241.093 272.739 242.111 273.572 242.812C274.328 243.438 275.306 243.752 276.506 243.752C277.835 243.752 279.047 243.541 280.137 243.117L280.605 245.191C279.331 245.746 277.828 246.022 276.092 246.022C274.005 246.022 272.367 245.408 271.175 244.182C269.985 242.955 269.389 241.306 269.389 239.24C269.389 237.213 269.943 235.523 271.053 234.175C272.214 232.736 273.784 232.017 275.759 232.017C277.699 232.017 279.167 232.736 280.165 234.175C280.954 235.315 281.351 236.729 281.351 238.407ZM278.5 237.632C278.521 236.744 278.324 235.98 277.919 235.334C277.401 234.501 276.604 234.085 275.537 234.085C274.559 234.085 273.763 234.491 273.157 235.304C272.659 235.951 272.363 236.727 272.271 237.629L278.5 237.632Z" fill="white"/>
<path d="M173.418 220.512C172.586 220.512 171.867 220.471 171.268 220.403V211.38C172.105 211.251 172.952 211.187 173.8 211.189C177.229 211.189 178.809 212.876 178.809 215.626C178.809 218.798 176.943 220.512 173.418 220.512ZM173.92 212.346C173.457 212.346 173.063 212.374 172.736 212.442V219.3C172.913 219.329 173.253 219.341 173.729 219.341C175.977 219.341 177.256 218.062 177.256 215.667C177.256 213.531 176.099 212.346 173.92 212.346ZM183.731 220.581C181.798 220.581 180.545 219.138 180.545 217.179C180.545 215.137 181.825 213.681 183.84 213.681C185.745 213.681 187.026 215.056 187.026 217.071C187.026 219.138 185.706 220.581 183.731 220.581ZM183.787 214.755C182.725 214.755 182.045 215.748 182.045 217.137C182.045 218.498 182.739 219.491 183.773 219.491C184.807 219.491 185.501 218.43 185.501 217.109C185.501 215.762 184.821 214.755 183.787 214.755ZM198.048 213.817L195.979 220.431H194.631L193.774 217.559C193.561 216.856 193.384 216.143 193.243 215.423H193.215C193.107 216.144 192.902 216.866 192.684 217.559L191.773 220.431H190.411L188.464 213.817H189.974L190.723 216.961C190.9 217.71 191.049 218.417 191.172 219.085H191.2C191.308 218.528 191.485 217.832 191.745 216.975L192.684 213.819H193.882L194.781 216.908C194.999 217.657 195.176 218.392 195.313 219.086H195.352C195.448 218.406 195.598 217.684 195.801 216.908L196.605 213.819L198.048 213.817ZM205.665 220.431H204.195V216.633C204.195 215.464 203.746 214.877 202.861 214.877C201.99 214.877 201.391 215.626 201.391 216.497V220.431H199.921V215.708C199.921 215.123 199.907 214.496 199.866 213.816H201.16L201.228 214.837H201.269C201.665 214.13 202.467 213.681 203.366 213.681C204.755 213.681 205.666 214.743 205.666 216.471L205.665 220.431ZM209.719 220.431H208.247V210.783H209.719V220.431ZM215.079 220.581C213.147 220.581 211.893 219.138 211.893 217.179C211.893 215.137 213.172 213.681 215.187 213.681C217.093 213.681 218.372 215.056 218.372 217.071C218.374 219.138 217.052 220.581 215.079 220.581ZM215.133 214.755C214.072 214.755 213.391 215.748 213.391 217.137C213.391 218.498 214.087 219.491 215.118 219.491C216.153 219.491 216.846 218.43 216.846 217.109C216.847 215.762 216.169 214.755 215.133 214.755ZM224.168 220.431L224.062 219.669H224.022C223.574 220.282 222.918 220.581 222.088 220.581C220.903 220.581 220.061 219.751 220.061 218.634C220.061 217.002 221.476 216.158 223.927 216.158V216.036C223.927 215.165 223.465 214.729 222.554 214.729C221.901 214.729 221.329 214.893 220.826 215.22L220.527 214.253C221.138 213.872 221.901 213.681 222.798 213.681C224.526 213.681 225.398 214.593 225.398 216.417V218.853C225.398 219.521 225.428 220.038 225.494 220.432L224.168 220.431ZM223.966 217.137C222.334 217.137 221.514 217.532 221.514 218.47C221.514 219.164 221.937 219.504 222.523 219.504C223.271 219.504 223.966 218.933 223.966 218.158V217.137ZM232.537 220.431L232.468 219.369H232.427C232.005 220.171 231.295 220.581 230.304 220.581C228.709 220.581 227.528 219.178 227.528 217.205C227.528 215.137 228.752 213.68 230.424 213.68C231.309 213.68 231.936 213.979 232.29 214.579H232.319V210.783H233.791V218.648C233.791 219.288 233.806 219.887 233.846 220.431H232.537ZM232.319 216.539C232.319 215.614 231.706 214.824 230.771 214.824C229.681 214.824 229.015 215.79 229.015 217.151C229.015 218.484 229.706 219.397 230.741 219.397C231.666 219.397 232.319 218.594 232.319 217.642V216.539ZM243.12 220.581C241.189 220.581 239.936 219.138 239.936 217.179C239.936 215.137 241.215 213.681 243.23 213.681C245.136 213.681 246.415 215.056 246.415 217.071C246.417 219.138 245.097 220.581 243.12 220.581ZM243.175 214.755C242.115 214.755 241.434 215.748 241.434 217.137C241.434 218.498 242.129 219.491 243.161 219.491C244.196 219.491 244.889 218.43 244.889 217.109C244.892 215.762 244.212 214.755 243.175 214.755ZM254.321 220.431H252.85V216.633C252.85 215.464 252.401 214.877 251.516 214.877C250.644 214.877 250.047 215.626 250.047 216.497V220.431H248.575V215.708C248.575 215.123 248.561 214.496 248.521 213.816H249.814L249.883 214.837H249.923C250.318 214.13 251.121 213.68 252.019 213.68C253.408 213.68 254.321 214.741 254.321 216.469V220.431ZM264.212 214.92H262.594V218.131C262.594 218.948 262.878 219.357 263.45 219.357C263.709 219.357 263.927 219.329 264.102 219.288L264.143 220.404C263.858 220.514 263.476 220.568 263.002 220.568C261.844 220.568 261.151 219.929 261.151 218.254V214.92H260.186V213.817H261.151V212.606L262.594 212.17V213.816H264.212V214.92ZM271.994 220.431H270.525V216.661C270.525 215.478 270.078 214.879 269.191 214.879C268.429 214.879 267.72 215.396 267.72 216.444V220.431H266.251V210.783H267.72V214.755H267.749C268.212 214.035 268.883 213.68 269.738 213.68C271.138 213.68 271.994 214.768 271.994 216.497V220.431ZM279.967 217.477H275.555C275.583 218.73 276.412 219.437 277.64 219.437C278.292 219.437 278.892 219.327 279.423 219.124L279.651 220.145C279.026 220.417 278.289 220.553 277.432 220.553C275.363 220.553 274.139 219.246 274.139 217.219C274.139 215.192 275.393 213.667 277.267 213.667C278.957 213.667 280.017 214.92 280.017 216.811C280.027 217.035 280.01 217.258 279.967 217.477ZM278.619 216.43C278.619 215.409 278.104 214.688 277.164 214.688C276.32 214.688 275.652 215.423 275.557 216.43H278.619Z" fill="white"/>
</g>
<g clip-path="url(#clip1_2494_12971)">
<path d="M525.078 257.072H352.016C348.14 257.072 345.094 254.026 345.094 250.149V208.615C345.094 204.738 348.14 201.692 352.016 201.692H525.078C528.954 201.692 532 204.738 532 208.615V250.149C532 254.026 528.954 257.072 525.078 257.072Z" fill="black"/>
<path d="M525.078 202.8C528.262 202.8 530.892 205.43 530.892 208.615V250.149C530.892 253.334 528.262 255.964 525.078 255.964H352.016C348.832 255.964 346.201 253.334 346.201 250.149V208.615C346.201 205.43 348.832 202.8 352.016 202.8H525.078ZM525.078 201.692H352.016C348.14 201.692 345.094 204.877 345.094 208.615V250.149C345.094 254.026 348.14 257.072 352.016 257.072H525.078C528.954 257.072 532 254.026 532 250.149V208.615C532 204.877 528.954 201.692 525.078 201.692Z" fill="#A6A6A6"/>
<path d="M410.719 215.814C410.719 216.922 410.442 217.891 409.75 218.583C408.919 219.414 407.95 219.829 406.704 219.829C405.458 219.829 404.488 219.414 403.658 218.583C402.827 217.752 402.412 216.783 402.412 215.537C402.412 214.291 402.827 213.322 403.658 212.491C404.488 211.661 405.458 211.245 406.704 211.245C407.257 211.245 407.811 211.384 408.365 211.661C408.919 211.937 409.334 212.214 409.611 212.63L408.919 213.322C408.365 212.63 407.673 212.353 406.704 212.353C405.873 212.353 405.042 212.63 404.488 213.322C403.796 213.876 403.519 214.706 403.519 215.676C403.519 216.645 403.796 217.475 404.488 218.029C405.181 218.583 405.873 218.998 406.704 218.998C407.673 218.998 408.365 218.721 409.057 218.029C409.473 217.614 409.75 217.06 409.75 216.368H406.704V215.26H410.719V215.814ZM417.087 212.353H413.349V214.983H416.81V215.953H413.349V218.583H417.087V219.691H412.242V211.384H417.087V212.353ZM421.656 219.691H420.549V212.353H418.195V211.384H424.01V212.353H421.656V219.691ZM428.025 219.691V211.384H429.132V219.691H428.025ZM433.84 219.691H432.732V212.353H430.378V211.384H436.055V212.353H433.701V219.691H433.84ZM446.992 218.583C446.162 219.414 445.192 219.829 443.946 219.829C442.7 219.829 441.731 219.414 440.901 218.583C440.07 217.752 439.655 216.783 439.655 215.537C439.655 214.291 440.07 213.322 440.901 212.491C441.731 211.661 442.7 211.245 443.946 211.245C445.192 211.245 446.162 211.661 446.992 212.491C447.823 213.322 448.238 214.291 448.238 215.537C448.238 216.783 447.823 217.752 446.992 218.583ZM441.731 217.891C442.285 218.445 443.116 218.86 443.946 218.86C444.777 218.86 445.608 218.583 446.162 217.891C446.715 217.337 447.131 216.506 447.131 215.537C447.131 214.568 446.854 213.737 446.162 213.184C445.608 212.63 444.777 212.214 443.946 212.214C443.116 212.214 442.285 212.491 441.731 213.184C441.177 213.737 440.762 214.568 440.762 215.537C440.762 216.506 441.039 217.337 441.731 217.891ZM449.761 219.691V211.384H451.007L455.022 217.891V211.384H456.13V219.691H455.022L450.73 212.907V219.691H449.761Z" fill="white" stroke="white" stroke-width="0.276898" stroke-miterlimit="10"/>
<path d="M439.378 231.874C436.055 231.874 433.424 234.366 433.424 237.827C433.424 241.15 436.055 243.781 439.378 243.781C442.7 243.781 445.331 241.289 445.331 237.827C445.331 234.228 442.7 231.874 439.378 231.874ZM439.378 241.289C437.578 241.289 436.055 239.766 436.055 237.689C436.055 235.612 437.578 234.089 439.378 234.089C441.177 234.089 442.7 235.474 442.7 237.689C442.7 239.766 441.177 241.289 439.378 241.289ZM426.502 231.874C423.179 231.874 420.549 234.366 420.549 237.827C420.549 241.15 423.179 243.781 426.502 243.781C429.825 243.781 432.455 241.289 432.455 237.827C432.455 234.228 429.825 231.874 426.502 231.874ZM426.502 241.289C424.702 241.289 423.179 239.766 423.179 237.689C423.179 235.612 424.702 234.089 426.502 234.089C428.302 234.089 429.825 235.474 429.825 237.689C429.825 239.766 428.302 241.289 426.502 241.289ZM411.134 233.674V236.166H417.087C416.949 237.551 416.395 238.658 415.703 239.35C414.872 240.181 413.488 241.15 411.134 241.15C407.396 241.15 404.627 238.243 404.627 234.505C404.627 230.767 407.534 227.859 411.134 227.859C413.072 227.859 414.595 228.69 415.703 229.659L417.503 227.859C415.98 226.475 414.041 225.367 411.272 225.367C406.288 225.367 401.996 229.52 401.996 234.505C401.996 239.489 406.288 243.642 411.272 243.642C414.041 243.642 415.98 242.812 417.641 241.012C419.302 239.35 419.856 236.997 419.856 235.197C419.856 234.643 419.856 234.089 419.718 233.674H411.134ZM473.99 235.612C473.436 234.228 472.052 231.874 469.006 231.874C465.96 231.874 463.468 234.228 463.468 237.827C463.468 241.15 465.96 243.781 469.283 243.781C471.913 243.781 473.574 242.119 474.128 241.15L472.19 239.766C471.498 240.735 470.667 241.427 469.283 241.427C467.898 241.427 467.067 240.873 466.375 239.627L474.267 236.304L473.99 235.612ZM465.96 237.551C465.96 235.335 467.76 234.089 469.006 234.089C469.975 234.089 470.944 234.643 471.221 235.335L465.96 237.551ZM459.453 243.227H462.083V225.921H459.453V243.227ZM455.299 233.12C454.607 232.428 453.499 231.736 452.115 231.736C449.207 231.736 446.438 234.366 446.438 237.689C446.438 241.012 449.069 243.504 452.115 243.504C453.499 243.504 454.607 242.812 455.161 242.119H455.299V242.95C455.299 245.165 454.053 246.411 452.115 246.411C450.592 246.411 449.484 245.304 449.207 244.335L446.992 245.304C447.685 246.827 449.346 248.765 452.253 248.765C455.299 248.765 457.791 246.965 457.791 242.673V232.151H455.299V233.12ZM452.253 241.289C450.453 241.289 448.931 239.766 448.931 237.689C448.931 235.612 450.453 234.089 452.253 234.089C454.053 234.089 455.438 235.612 455.438 237.689C455.438 239.766 454.053 241.289 452.253 241.289ZM486.035 225.921H479.805V243.227H482.435V236.72H486.035C488.942 236.72 491.711 234.643 491.711 231.32C491.711 227.998 488.942 225.921 486.035 225.921ZM486.173 234.228H482.435V228.274H486.173C488.112 228.274 489.219 229.936 489.219 231.182C489.081 232.705 487.973 234.228 486.173 234.228ZM502.095 231.736C500.157 231.736 498.218 232.566 497.526 234.366L499.88 235.335C500.434 234.366 501.264 234.089 502.233 234.089C503.618 234.089 504.864 234.92 505.002 236.304V236.443C504.587 236.166 503.479 235.751 502.372 235.751C499.88 235.751 497.388 237.135 497.388 239.627C497.388 241.981 499.464 243.504 501.68 243.504C503.479 243.504 504.31 242.673 505.002 241.842H505.141V243.227H507.633V236.581C507.356 233.535 505.002 231.736 502.095 231.736ZM501.818 241.289C500.987 241.289 499.741 240.873 499.741 239.766C499.741 238.381 501.264 237.966 502.51 237.966C503.618 237.966 504.172 238.243 504.864 238.52C504.587 240.181 503.203 241.289 501.818 241.289ZM516.355 232.151L513.448 239.627H513.309L510.263 232.151H507.494L512.063 242.673L509.433 248.488H512.063L519.124 232.151H516.355ZM493.096 243.227H495.726V225.921H493.096V243.227Z" fill="white"/>
<path d="M359.493 212.076C359.077 212.491 358.939 213.184 358.939 214.014V244.612C358.939 245.442 359.216 246.134 359.631 246.55L359.769 246.688L376.937 229.521V229.244L359.493 212.076Z" fill="url(#paint2_linear_2494_12971)"/>
<path d="M382.475 235.335L376.799 229.659V229.244L382.475 223.567L382.614 223.706L389.398 227.582C391.336 228.69 391.336 230.49 389.398 231.597L382.475 235.335Z" fill="url(#paint3_linear_2494_12971)"/>
<path d="M382.614 235.197L376.799 229.382L359.493 246.688C360.185 247.38 361.154 247.38 362.4 246.827L382.614 235.197Z" fill="url(#paint4_linear_2494_12971)"/>
<path d="M382.614 223.567L362.4 212.076C361.154 211.384 360.185 211.522 359.493 212.214L376.799 229.382L382.614 223.567Z" fill="url(#paint5_linear_2494_12971)"/>
<path opacity="0.2" d="M382.475 235.058L362.4 246.411C361.292 247.104 360.323 246.965 359.631 246.411L359.493 246.55L359.631 246.688C360.323 247.242 361.292 247.38 362.4 246.688L382.475 235.058Z" fill="black"/>
<path opacity="0.12" d="M359.493 246.411C359.077 245.996 358.939 245.304 358.939 244.473V244.611C358.939 245.442 359.216 246.134 359.631 246.55V246.411H359.493ZM389.398 231.182L382.475 235.058L382.614 235.197L389.398 231.32C390.367 230.767 390.782 230.074 390.782 229.382C390.782 230.074 390.228 230.628 389.398 231.182Z" fill="black"/>
<path opacity="0.25" d="M362.4 212.214L389.398 227.582C390.228 228.136 390.782 228.69 390.782 229.382C390.782 228.69 390.367 227.998 389.398 227.444L362.4 212.076C360.462 210.968 358.939 211.799 358.939 214.014V214.153C358.939 212.076 360.462 211.107 362.4 212.214Z" fill="white"/>
</g>
<path fill-rule="evenodd" clip-rule="evenodd" d="M1055.31 155.774H1055.31C1073.24 155.774 1087.91 170.441 1087.91 188.368V307.876H1022.72V188.368C1022.72 170.441 1037.39 155.774 1055.31 155.774ZM1055.31 71.779C1073.31 71.779 1087.91 86.3712 1087.91 104.371C1087.91 122.373 1073.31 136.965 1055.31 136.965C1037.31 136.965 1022.72 122.373 1022.72 104.371C1022.72 86.3712 1037.31 71.779 1055.31 71.779ZM963.981 223.88H963.982C981.908 223.88 996.575 209.213 996.575 191.287V71.779H931.388V191.287C931.388 209.213 946.055 223.88 963.981 223.88ZM963.982 307.875C981.982 307.875 996.575 293.283 996.575 275.282C996.575 257.281 981.982 242.689 963.982 242.689C945.981 242.689 931.388 257.281 931.388 275.282C931.388 293.283 945.981 307.875 963.982 307.875ZM1146.6 224.327H1146.6C1164.53 224.327 1179.2 209.661 1179.2 191.734V71.7782H1114.01V191.734C1114.01 209.661 1128.67 224.327 1146.6 224.327ZM1146.6 307.875C1164.6 307.875 1179.2 293.283 1179.2 275.282C1179.2 257.281 1164.6 242.689 1146.6 242.689C1128.6 242.689 1114.01 257.281 1114.01 275.282C1114.01 293.283 1128.6 307.875 1146.6 307.875Z" fill="#222222"/>
<defs>
<filter id="filter0_d_2494_12971" x="0" y="0" width="1300" height="410" filterUnits="userSpaceOnUse" color-interpolation-filters="sRGB">
<feFlood flood-opacity="0" result="BackgroundImageFix"/>
<feColorMatrix in="SourceAlpha" type="matrix" values="0 0 0 0 0 0 0 0 0 0 0 0 0 0 0 0 0 0 127 0" result="hardAlpha"/>
<feOffset dy="15"/>
<feGaussianBlur stdDeviation="15"/>
<feComposite in2="hardAlpha" operator="out"/>
<feColorMatrix type="matrix" values="0 0 0 0 0.811765 0 0 0 0 0 0 0 0 0 0.345098 0 0 0 0.05 0"/>
<feBlend mode="normal" in2="BackgroundImageFix" result="effect1_dropShadow_2494_12971"/>
<feBlend mode="normal" in="SourceGraphic" in2="effect1_dropShadow_2494_12971" result="shape"/>
</filter>
<linearGradient id="paint0_linear_2494_12971" x1="650" y1="467" x2="650" y2="-137" gradientUnits="userSpaceOnUse">
<stop stop-color="#CF0058"/>
<stop offset="1" stop-color="#E800B2" stop-opacity="0"/>
</linearGradient>
<linearGradient id="paint1_linear_2494_12971" x1="248.811" y1="257.82" x2="248.811" y2="55.575" gradientUnits="userSpaceOnUse">
<stop stop-color="#1A1A1A" stop-opacity="0.1"/>
<stop offset="0.123" stop-color="#212121" stop-opacity="0.151"/>
<stop offset="0.308" stop-color="#353535" stop-opacity="0.227"/>
<stop offset="0.532" stop-color="#575757" stop-opacity="0.318"/>
<stop offset="0.783" stop-color="#858585" stop-opacity="0.421"/>
<stop offset="1" stop-color="#B3B3B3" stop-opacity="0.51"/>
</linearGradient>
<linearGradient id="paint2_linear_2494_12971" x1="375.276" y1="213.751" x2="352.04" y2="236.986" gradientUnits="userSpaceOnUse">
<stop stop-color="#00A0FF"/>
<stop offset="0.007" stop-color="#00A1FF"/>
<stop offset="0.26" stop-color="#00BEFF"/>
<stop offset="0.512" stop-color="#00D2FF"/>
<stop offset="0.76" stop-color="#00DFFF"/>
<stop offset="1" stop-color="#00E3FF"/>
</linearGradient>
<linearGradient id="paint3_linear_2494_12971" x1="391.937" y1="229.383" x2="358.436" y2="229.383" gradientUnits="userSpaceOnUse">
<stop stop-color="#FFE000"/>
<stop offset="0.409" stop-color="#FFBD00"/>
<stop offset="0.775" stop-color="#FFA500"/>
<stop offset="1" stop-color="#FF9C00"/>
</linearGradient>
<linearGradient id="paint4_linear_2494_12971" x1="379.467" y1="232.561" x2="347.958" y2="264.069" gradientUnits="userSpaceOnUse">
<stop stop-color="#FF3A44"/>
<stop offset="1" stop-color="#C31162"/>
</linearGradient>
<linearGradient id="paint5_linear_2494_12971" x1="355.196" y1="201.936" x2="369.267" y2="216.007" gradientUnits="userSpaceOnUse">
<stop stop-color="#32A071"/>
<stop offset="0.069" stop-color="#2DA771"/>
<stop offset="0.476" stop-color="#15CF74"/>
<stop offset="0.801" stop-color="#06E775"/>
<stop offset="1" stop-color="#00F076"/>
</linearGradient>
<clipPath id="clip0_2494_12971">
<rect width="189.914" height="56.7641" fill="white" transform="translate(110 201)"/>
</clipPath>
<clipPath id="clip1_2494_12971">
<rect width="186.906" height="56.7641" fill="white" transform="translate(345.094 201)"/>
</clipPath>
</defs>
</svg>
