<svg width="18" height="18" viewBox="0 0 18 18" fill="none" xmlns="http://www.w3.org/2000/svg">
<path fill-rule="evenodd" clip-rule="evenodd" d="M12.4202 6.39903L6.24019 0.219032C6.05129 0.0301283 5.77595 -0.0436472 5.51791 0.0254965C5.25986 0.0946402 5.0583 0.296199 4.98916 0.554247C4.92001 0.812294 4.99379 1.08763 5.18269 1.27653L6.44269 2.53653L2.58019 6.39903C2.36766 6.60898 2.24805 6.89529 2.24805 7.19403C2.24805 7.49278 2.36766 7.77908 2.58019 7.98903L6.70519 12.114C6.92269 12.3315 7.21519 12.444 7.50019 12.444C7.78519 12.444 8.07769 12.3315 8.29519 12.114L12.4202 7.98903C12.8627 7.55403 12.8627 6.84153 12.4202 6.39903ZM3.90769 7.19403L7.50019 3.60153L11.0927 7.19403H3.90769ZM12.7502 10.944C12.7502 9.94653 14.2502 8.31903 14.2502 8.31903C14.2502 8.31903 15.7502 9.94653 15.7502 10.944C15.7502 11.769 15.0752 12.444 14.2502 12.444C13.4252 12.444 12.7502 11.769 12.7502 10.944Z" fill="black"/>
<path opacity="0.3" d="M1.5 14.6941H16.5C17.325 14.6941 18 15.3691 18 16.1941C18 17.0191 17.325 17.6941 16.5 17.6941H1.5C0.675 17.6941 0 17.0191 0 16.1941C0 15.3691 0.675 14.6941 1.5 14.6941Z" fill="black"/>
</svg>
