<svg width="15" height="11" viewBox="0 0 15 11" fill="none" xmlns="http://www.w3.org/2000/svg">
<path fill-rule="evenodd" clip-rule="evenodd" d="M11.2481 0.293563L14.8331 5.00653C15.0584 5.29825 15.0553 5.71614 14.8256 6.00411L11.0756 10.7171C10.9328 10.8966 10.7212 11.0002 10.4981 10.9998C10.3238 11.0024 10.1541 10.9413 10.0181 10.827C9.86473 10.6939 9.76825 10.5022 9.74996 10.2945C9.73166 10.0867 9.79306 9.8798 9.92061 9.71949L13.2806 5.50139L10.0781 1.28329C9.95228 1.12101 9.89341 0.912893 9.91452 0.705018C9.93564 0.497144 10.035 0.306659 10.1906 0.175739C10.3456 0.0439559 10.5443 -0.0177042 10.7427 0.00441012C10.9412 0.0265244 11.1231 0.130589 11.2481 0.293563ZM4.42913 0.00486464C4.62753 -0.0142928 4.82505 0.0500133 4.97811 0.183594C5.13149 0.316773 5.22797 0.508396 5.24626 0.716181C5.26456 0.923966 5.20316 1.13083 5.07561 1.29114L1.71561 5.50139L4.96311 9.71949C5.14562 9.95511 5.18224 10.2797 5.0572 10.5534C4.93215 10.8271 4.6678 11.0009 4.37811 10.9998C4.15117 11.0007 3.93609 10.8938 3.79311 10.7092L0.170616 5.99625C-0.0568719 5.7064 -0.0568719 5.28852 0.170616 4.99867L3.92061 0.285708C4.04777 0.125069 4.23074 0.0240221 4.42913 0.00486464Z" fill="black"/>
</svg>
