<svg width="120" height="120" viewBox="0 0 120 120" fill="none" xmlns="http://www.w3.org/2000/svg">
<g filter="url(#filter0_d_2494_12946)">
<path d="M100 50C100 80.8 90.8 90 60 90C28 90 20 81.2 20 50C20 18.8 28.4 10 60 10C90.8 10 100 19.2 100 50Z" fill="#CF0058" fill-opacity="0.3" shape-rendering="crispEdges"/>
<path d="M99.75 50C99.75 65.3923 97.4468 75.2996 91.3732 81.3732C85.2996 87.4468 75.3923 89.75 60 89.75C44.0024 89.75 34.0999 87.545 28.1782 81.5247C22.2555 75.5033 20.25 65.5997 20.25 50C20.25 34.4024 22.3549 24.498 28.3275 18.476C34.2996 12.4546 44.2035 10.25 60 10.25C75.3923 10.25 85.2996 12.5532 91.3732 18.6268C97.4468 24.7004 99.75 34.6077 99.75 50Z" stroke="#EDEEF1" stroke-width="0.5" shape-rendering="crispEdges"/>
</g>
<g clip-path="url(#clip0_2494_12946)">
<path d="M53.75 50H66.25" stroke="#A60046" stroke-width="2.5" stroke-linecap="round" stroke-linejoin="round"/>
<path d="M60 43.75V56.25" stroke="#A60046" stroke-width="2.5" stroke-linecap="round" stroke-linejoin="round"/>
</g>
<defs>
<filter id="filter0_d_2494_12946" x="0" y="0" width="120" height="120" filterUnits="userSpaceOnUse" color-interpolation-filters="sRGB">
<feFlood flood-opacity="0" result="BackgroundImageFix"/>
<feColorMatrix in="SourceAlpha" type="matrix" values="0 0 0 0 0 0 0 0 0 0 0 0 0 0 0 0 0 0 127 0" result="hardAlpha"/>
<feOffset dy="10"/>
<feGaussianBlur stdDeviation="10"/>
<feComposite in2="hardAlpha" operator="out"/>
<feColorMatrix type="matrix" values="0 0 0 0 0.541176 0 0 0 0 0.584314 0 0 0 0 0.619608 0 0 0 0.1 0"/>
<feBlend mode="normal" in2="BackgroundImageFix" result="effect1_dropShadow_2494_12946"/>
<feBlend mode="normal" in="SourceGraphic" in2="effect1_dropShadow_2494_12946" result="shape"/>
</filter>
<clipPath id="clip0_2494_12946">
<rect width="50" height="50" fill="white" transform="translate(35 25)"/>
</clipPath>
</defs>
</svg>
