<svg width="25" height="24" viewBox="0 0 25 24" fill="none" xmlns="http://www.w3.org/2000/svg">
<path fill-rule="evenodd" clip-rule="evenodd" d="M10.1963 12.0774V20.6709C10.1963 20.7871 10.2931 20.9032 10.4286 20.9032H13.6221C13.7382 20.9032 13.8544 20.8064 13.8544 20.6709V11.9225H16.1576C16.2737 11.9225 16.3705 11.8258 16.3899 11.7096L16.5834 9.09673C16.6028 8.96125 16.4866 8.84512 16.3511 8.84512H13.835V6.98706C13.835 6.5419 14.1834 6.19351 14.6286 6.19351H16.4092C16.5253 6.19351 16.6415 6.09673 16.6415 5.96125V3.34835C16.6415 3.23222 16.5447 3.11609 16.4092 3.11609H13.3899C11.6286 3.11609 10.1963 4.54835 10.1963 6.30964V8.84512H8.60921C8.49308 8.84512 8.37695 8.9419 8.37695 9.07738V11.7096C8.37695 11.8258 8.47373 11.9419 8.60921 11.9419H10.1963V12.0774Z" fill="white"/>
</svg>
