<svg width="14" height="14" viewBox="0 0 14 14" fill="none" xmlns="http://www.w3.org/2000/svg">
<path fill-rule="evenodd" clip-rule="evenodd" d="M11.6667 0H2.33333C1.04467 0 0 1.04467 0 2.33333V11.6667C0 12.9553 1.04467 14 2.33333 14H11.6667C12.9553 14 14 12.9553 14 11.6667V2.33333C14 1.04467 12.9553 0 11.6667 0ZM3.88889 3.11111C4.53322 3.11111 5.05556 3.63345 5.05556 4.27778C5.05556 4.92211 4.53322 5.44444 3.88889 5.44444C3.24456 5.44444 2.72222 4.92211 2.72222 4.27778C2.72222 3.63345 3.24456 3.11111 3.88889 3.11111ZM11.6667 12.4444C12.1324 12.4072 12.4802 12.0003 12.4444 11.5344V10.6244L8.94444 7.14C8.73955 6.9531 8.426 6.9531 8.22111 7.14L2.33333 12.4444H11.6667Z" fill="black"/>
</svg>
