<svg width="120" height="120" viewBox="0 0 120 120" fill="none" xmlns="http://www.w3.org/2000/svg">
<g filter="url(#filter0_d_2494_12962)">
<path d="M100 50C100 80.8 90.8 90 60 90C28 90 20 81.2 20 50C20 18.8 28.4 10 60 10C90.8 10 100 19.2 100 50Z" fill="#CF0058" fill-opacity="0.3" shape-rendering="crispEdges"/>
<path d="M99.75 50C99.75 65.3923 97.4468 75.2996 91.3732 81.3732C85.2996 87.4468 75.3923 89.75 60 89.75C44.0024 89.75 34.0999 87.545 28.1782 81.5247C22.2555 75.5033 20.25 65.5997 20.25 50C20.25 34.4024 22.3549 24.498 28.3275 18.476C34.2996 12.4546 44.2035 10.25 60 10.25C75.3923 10.25 85.2996 12.5532 91.3732 18.6268C97.4468 24.7004 99.75 34.6077 99.75 50Z" stroke="#EDEEF1" stroke-width="0.5" shape-rendering="crispEdges"/>
</g>
<path d="M51.8048 63.4609C52.1057 64.0947 52.4581 64.7121 52.8609 65.3078L50.4844 72.4375L59.0766 70.6094C62.576 72.3083 66.6504 72.8198 70.5422 72.0488C74.434 71.2778 77.8784 69.2767 80.235 66.4177C82.5916 63.5587 83.7001 60.0363 83.3542 56.5054C83.0083 52.9745 81.2317 49.6753 78.3547 47.2214C76.8295 45.9205 75.0502 44.9041 73.1214 44.2121C73.784 45.6077 74.204 47.0972 74.3542 48.6304C74.7001 52.1613 73.5916 55.6837 71.235 58.5427C68.8784 61.4017 65.434 63.4028 61.5422 64.1738C58.2757 64.8209 54.8806 64.5645 51.8048 63.4609Z" fill="url(#paint0_linear_2494_12962)"/>
<path d="M41.4844 64.5625L43.8609 57.4328C41.8069 54.395 41.0639 50.7975 41.77 47.3092C42.476 43.821 44.5832 40.6793 47.6996 38.4684C50.816 36.2574 54.7296 35.1277 58.7128 35.2892C62.696 35.4507 66.4776 36.8924 69.3547 39.3464C72.2317 41.8003 74.0083 45.0995 74.3542 48.6304C74.7001 52.1613 73.5916 55.6837 71.235 58.5427C68.8784 61.4017 65.434 63.4028 61.5422 64.1738C57.6504 64.9448 53.576 64.4333 50.0766 62.7344L41.4844 64.5625" stroke="#CF0058" stroke-width="2.8125" stroke-linecap="round" stroke-linejoin="round"/>
<path d="M57.9375 49.9375V49.9562" stroke="#CF0058" stroke-width="2.8125" stroke-linecap="round" stroke-linejoin="round"/>
<path d="M50.625 49.9375V49.9562" stroke="#CF0058" stroke-width="2.8125" stroke-linecap="round" stroke-linejoin="round"/>
<path d="M65.25 49.9375V49.9562" stroke="#CF0058" stroke-width="2.8125" stroke-linecap="round" stroke-linejoin="round"/>
<defs>
<filter id="filter0_d_2494_12962" x="0" y="0" width="120" height="120" filterUnits="userSpaceOnUse" color-interpolation-filters="sRGB">
<feFlood flood-opacity="0" result="BackgroundImageFix"/>
<feColorMatrix in="SourceAlpha" type="matrix" values="0 0 0 0 0 0 0 0 0 0 0 0 0 0 0 0 0 0 127 0" result="hardAlpha"/>
<feOffset dy="10"/>
<feGaussianBlur stdDeviation="10"/>
<feComposite in2="hardAlpha" operator="out"/>
<feColorMatrix type="matrix" values="0 0 0 0 0.541176 0 0 0 0 0.584314 0 0 0 0 0.619608 0 0 0 0.1 0"/>
<feBlend mode="normal" in2="BackgroundImageFix" result="effect1_dropShadow_2494_12962"/>
<feBlend mode="normal" in="SourceGraphic" in2="effect1_dropShadow_2494_12962" result="shape"/>
</filter>
<linearGradient id="paint0_linear_2494_12962" x1="68.0625" y1="57.25" x2="78.1875" y2="91" gradientUnits="userSpaceOnUse">
<stop stop-color="#CF0058" stop-opacity="0"/>
<stop offset="1" stop-color="#CF0058"/>
</linearGradient>
</defs>
</svg>
