<svg width="153" height="141" viewBox="0 0 153 141" fill="none" xmlns="http://www.w3.org/2000/svg">
<path d="M139.654 97.0072C122.269 77.8784 98.8244 70.7348 73.7894 77.9173C60.9713 81.5948 61.4401 104.934 75.5363 99.6234C88.6814 94.6716 82.2667 68.9092 76.8734 61.1938C65.1715 44.4532 49.8063 33.0623 34.5126 20.0914" stroke="#A60046" stroke-width="2" stroke-linecap="round"/>
<path d="M36.0018 13.9999C33.4727 13.6728 21.3936 9.99466 24.4726 15.3895C26.042 18.1392 26.8042 21.6859 28.2497 24.5854" stroke="#A60046" stroke-width="2" stroke-linecap="round"/>
<path d="M143.174 91.4121C143.66 92.6553 149.109 102.43 148.439 103.912C147.826 105.266 145.922 103.878 144.861 103.875C141.997 103.865 140.427 102.989 137.561 103.811" stroke="#A60046" stroke-width="2" stroke-linecap="round"/>
</svg>
