<svg width="14" height="11" viewBox="0 0 14 11" fill="none" xmlns="http://www.w3.org/2000/svg">
<path fill-rule="evenodd" clip-rule="evenodd" d="M1.55556 1.1C1.55556 1.70867 2.07667 2.2 2.72222 2.2H5.44444V4.4H8.55556V2.2H11.2778C11.9233 2.2 12.4444 1.70867 12.4444 1.1C12.4444 0.491333 11.9233 0 11.2778 0H2.72222C2.07667 0 1.55556 0.491333 1.55556 1.1ZM7 11C7.85556 11 8.55556 10.34 8.55556 9.53333V8.8H5.44444V9.53333C5.44444 10.34 6.14444 11 7 11ZM13.2222 7.33333H0.777778C0.35 7.33333 0 7.00333 0 6.6C0 6.19667 0.35 5.86667 0.777778 5.86667H13.2222C13.65 5.86667 14 6.19667 14 6.6C14 7.00333 13.65 7.33333 13.2222 7.33333Z" fill="black"/>
</svg>
