<svg width="15" height="15" viewBox="0 0 15 15" fill="none" xmlns="http://www.w3.org/2000/svg">
<path fill-rule="evenodd" clip-rule="evenodd" d="M13.2345 0.910596C11.3632 -0.476138 8.75409 -0.257771 7.13902 1.42075L6.32929 2.24599C6.14212 2.38214 6.02141 2.5913 5.99711 2.82155C5.97282 3.05181 6.04721 3.28159 6.20183 3.45384C6.34261 3.59587 6.53424 3.67576 6.73416 3.67576C6.93407 3.67576 7.1257 3.59587 7.26648 3.45384L8.24116 2.47106C9.35089 1.31544 11.1539 1.18588 12.4173 2.17097C13.0768 2.71082 13.4757 3.50591 13.5143 4.35766C13.553 5.2094 13.2277 6.03738 12.6197 6.63478L11.5551 7.7076C11.4131 7.84846 11.3333 8.04022 11.3333 8.24025C11.3333 8.44029 11.4131 8.63204 11.5551 8.77291C11.6959 8.91494 11.8875 8.99482 12.0874 8.99482C12.2873 8.99482 12.479 8.91494 12.6197 8.77291L13.6844 7.7076C14.6007 6.78203 15.0761 5.50762 14.9901 4.20767C14.904 2.90772 14.2648 1.70717 13.2345 0.910596ZM7.70134 11.5487L6.74165 12.5015C5.62628 13.6515 3.82592 13.7807 2.55802 12.8016C1.90344 12.2619 1.50787 11.47 1.46929 10.6222C1.43071 9.77434 1.75273 8.9498 2.35559 8.35279L3.42024 7.27997C3.56218 7.1391 3.64202 6.94735 3.64202 6.74731C3.64202 6.54728 3.56218 6.35552 3.42024 6.21466C3.27946 6.07263 3.08783 5.99274 2.88791 5.99274C2.688 5.99274 2.49637 6.07263 2.35559 6.21466L1.4034 7.17494C-0.25556 8.78243 -0.470255 11.37 0.901063 13.2292C1.69714 14.2626 2.89856 14.9039 4.19967 14.9901C5.50078 15.0762 6.77616 14.5988 7.70134 13.6794L8.76599 12.614C9.05999 12.3199 9.05999 11.8429 8.76599 11.5487C8.472 11.2545 7.99534 11.2545 7.70134 11.5487ZM5.4675 8.4675L8.4675 5.4675C8.76159 5.17341 9.23841 5.17341 9.5325 5.4675C9.82659 5.76159 9.82659 6.23841 9.5325 6.5325L6.5325 9.5325C6.39167 9.67448 6.19998 9.75435 6 9.75435C5.80002 9.75435 5.60833 9.67448 5.4675 9.5325C5.32552 9.39167 5.24565 9.19998 5.24565 9C5.24565 8.80002 5.32552 8.60833 5.4675 8.4675Z" fill="black"/>
</svg>
