<svg width="160" height="52" viewBox="0 0 160 52" fill="none" xmlns="http://www.w3.org/2000/svg">
<path fill-rule="evenodd" clip-rule="evenodd" d="M17.3491 21.0751H17.3492C19.7753 21.0751 21.7603 23.0601 21.7603 25.4863V41.6603H12.938V25.4863C12.938 23.0601 14.923 21.0751 17.3491 21.0751ZM17.3492 9.70731C19.7854 9.70731 21.7603 11.6822 21.7603 14.1183C21.7603 16.5546 19.7854 18.5295 17.3492 18.5295C14.913 18.5295 12.9381 16.5546 12.9381 14.1183C12.9381 11.6822 14.913 9.70731 17.3492 9.70731ZM4.9885 30.2924H4.98871C7.41481 30.2924 9.3998 28.3074 9.3998 25.8813V9.70731H0.577515V25.8813C0.577515 28.3074 2.56251 30.2924 4.9885 30.2924ZM4.98871 41.6602C7.42481 41.6602 9.3997 39.6853 9.3997 37.2491C9.3997 34.8129 7.42481 32.838 4.98871 32.838C2.55241 32.838 0.577515 34.8129 0.577515 37.2491C0.577515 39.6853 2.55241 41.6602 4.98871 41.6602ZM29.704 30.3529H29.7042C32.1304 30.3529 34.1153 28.368 34.1153 25.9419V9.70721H25.2931V25.9419C25.2931 28.368 27.2779 30.3529 29.704 30.3529ZM29.7042 41.6602C32.1404 41.6602 34.1154 39.6853 34.1154 37.2491C34.1154 34.8129 32.1404 32.838 29.7042 32.838C27.2681 32.838 25.2931 34.8129 25.2931 37.2491C25.2931 39.6853 27.2681 41.6602 29.7042 41.6602Z" fill="#CF0058"/>
<path d="M63.2579 15.3604C63.4917 15.3604 63.7042 15.4454 63.8955 15.6154C64.108 15.7854 64.2142 16.0192 64.2142 16.3167C64.2142 16.3804 64.2036 16.4548 64.1824 16.5398C64.1611 16.6248 64.1399 16.6886 64.1186 16.7311L59.2096 31.3943C59.1246 31.5856 58.9865 31.745 58.7952 31.8725C58.6252 31.9787 58.4446 32.0213 58.2533 32C57.8708 31.9787 57.5839 31.7769 57.3926 31.3943L52.898 20.8113L53.4718 20.9388L49.4872 31.3943C49.3172 31.7769 49.0303 31.9787 48.6266 32C48.4353 32.0213 48.244 31.9787 48.0528 31.8725C47.8615 31.745 47.734 31.5856 47.6703 31.3943L42.6338 16.7311C42.57 16.5823 42.5381 16.4442 42.5381 16.3167C42.5381 16.0404 42.6231 15.8173 42.7931 15.6473C42.9844 15.456 43.2288 15.3604 43.5263 15.3604C43.7176 15.3604 43.8876 15.4135 44.0363 15.5198C44.2063 15.626 44.3232 15.7854 44.387 15.9979L48.9135 29.5774L48.3078 29.5455L52.4199 19.1856C52.5899 18.7818 52.8874 18.5799 53.3124 18.5799C53.5249 18.5799 53.7056 18.6331 53.8543 18.7393C54.0031 18.8456 54.12 18.9943 54.205 19.1856L58.5721 29.5774L57.8708 29.6093L62.3654 15.9979C62.4929 15.5729 62.7904 15.3604 63.2579 15.3604ZM75.2421 32.3188C73.6057 32.3188 72.1607 31.9681 70.9069 31.2668C69.653 30.5656 68.6755 29.588 67.9742 28.3342C67.2729 27.0804 66.9223 25.614 66.9223 23.9352C66.9223 22.1289 67.2729 20.5882 67.9742 19.3131C68.6967 18.038 69.6212 17.0605 70.7475 16.3804C71.895 15.6792 73.1063 15.3285 74.3814 15.3285C75.3165 15.3285 76.2196 15.4985 77.0909 15.8385C77.9835 16.1573 78.7698 16.6461 79.4498 17.3049C80.1511 17.9424 80.7036 18.7287 81.1074 19.6637C81.5324 20.5988 81.7662 21.6826 81.8087 22.9152C81.7874 23.1702 81.6812 23.3933 81.4899 23.5846C81.2986 23.7546 81.0755 23.8396 80.8205 23.8396H68.038L67.6554 22.1182H80.2148L79.8004 22.5008V21.8632C79.7154 20.8644 79.3967 20.0144 78.8441 19.3131C78.2916 18.6118 77.6222 18.0805 76.8359 17.7193C76.0496 17.358 75.2315 17.1774 74.3814 17.1774C73.7439 17.1774 73.0851 17.3049 72.4051 17.5599C71.7463 17.8149 71.1406 18.2187 70.5881 18.7712C70.0568 19.3025 69.6212 19.9931 69.2811 20.8432C68.9411 21.672 68.7711 22.6601 68.7711 23.8077C68.7711 25.0615 69.0261 26.1984 69.5362 27.2185C70.0462 28.2386 70.7793 29.0461 71.7356 29.6411C72.7132 30.2362 73.8714 30.5337 75.2102 30.5337C75.954 30.5337 76.6234 30.4274 77.2184 30.2149C77.8135 30.0024 78.3341 29.7261 78.7804 29.3861C79.2267 29.0248 79.5986 28.653 79.8961 28.2704C80.1298 28.0792 80.3636 27.9835 80.5974 27.9835C80.8099 27.9835 80.9905 28.0685 81.1393 28.2386C81.3093 28.4086 81.3943 28.5998 81.3943 28.8123C81.3943 29.0673 81.288 29.2905 81.0755 29.4817C80.438 30.2468 79.6092 30.9162 78.5891 31.49C77.5691 32.0425 76.4534 32.3188 75.2421 32.3188ZM92.5367 15.3285C93.493 15.3285 94.3749 15.4985 95.1824 15.8385C95.99 16.1573 96.6912 16.5823 97.2863 17.1136C97.9026 17.6236 98.3807 18.1762 98.7207 18.7712C99.0607 19.345 99.2308 19.8975 99.2308 20.4288L98.6888 19.6637V16.6992C98.6888 16.4229 98.7739 16.1892 98.9439 15.9979C99.1351 15.8067 99.3689 15.711 99.6452 15.711C99.9427 15.711 100.176 15.8067 100.346 15.9979C100.516 16.1892 100.601 16.4229 100.601 16.6992V30.5018C100.601 32.2019 100.251 33.6363 99.5495 34.8051C98.8482 35.974 97.8919 36.8559 96.6806 37.4509C95.4906 38.0672 94.1305 38.3753 92.6004 38.3753C91.8566 38.3753 91.0703 38.2797 90.2415 38.0884C89.434 37.8972 88.7327 37.6528 88.1377 37.3553C87.5639 37.0578 87.2451 36.7496 87.1814 36.4309C87.0114 36.2396 86.9264 36.0483 86.9264 35.8571C86.9476 35.6871 87.0432 35.5383 87.2133 35.4108C87.4258 35.262 87.6489 35.2408 87.8827 35.347C88.1164 35.4746 88.4671 35.6339 88.9346 35.8252C89.1471 35.889 89.434 35.9846 89.7953 36.1121C90.1565 36.2396 90.5816 36.3459 91.0703 36.4309C91.5804 36.5371 92.1116 36.5902 92.6642 36.5902C94.5768 36.5902 96.0537 36.0377 97.095 34.9327C98.1576 33.8488 98.6888 32.4144 98.6888 30.6293V27.5691L99.0395 27.6648C98.8482 28.4298 98.5295 29.0992 98.0832 29.673C97.6582 30.2468 97.1481 30.7356 96.5531 31.1393C95.9581 31.5219 95.3099 31.8087 94.6086 32C93.9286 32.2125 93.2486 32.3188 92.5685 32.3188C91.1022 32.3188 89.7846 31.9469 88.6158 31.2031C87.447 30.4593 86.512 29.4499 85.8107 28.1748C85.1306 26.8997 84.7906 25.444 84.7906 23.8077C84.7906 22.1926 85.1306 20.7475 85.8107 19.4725C86.512 18.1762 87.4364 17.1667 88.584 16.4442C89.7528 15.7004 91.0703 15.3285 92.5367 15.3285ZM92.7598 17.1136C91.591 17.1136 90.5391 17.4111 89.604 18.0061C88.6902 18.5799 87.9677 19.3768 87.4364 20.3969C86.9264 21.3957 86.6714 22.5326 86.6714 23.8077C86.6714 25.0828 86.9264 26.2303 87.4364 27.2504C87.9677 28.2704 88.6902 29.078 89.604 29.673C90.5391 30.2468 91.591 30.5337 92.7598 30.5337C93.9286 30.5337 94.9699 30.2468 95.8837 29.673C96.7975 29.0992 97.52 28.3129 98.0513 27.3141C98.5826 26.2941 98.8482 25.1253 98.8482 23.8077C98.8482 22.4901 98.5826 21.3319 98.0513 20.3331C97.52 19.3131 96.7975 18.5268 95.8837 17.9743C94.9699 17.4005 93.9286 17.1136 92.7598 17.1136ZM112.38 32.3188C110.743 32.3188 109.298 31.9681 108.044 31.2668C106.791 30.5656 105.813 29.588 105.112 28.3342C104.41 27.0804 104.06 25.614 104.06 23.9352C104.06 22.1289 104.41 20.5882 105.112 19.3131C105.834 18.038 106.759 17.0605 107.885 16.3804C109.033 15.6792 110.244 15.3285 111.519 15.3285C112.454 15.3285 113.357 15.4985 114.228 15.8385C115.121 16.1573 115.907 16.6461 116.587 17.3049C117.289 17.9424 117.841 18.7287 118.245 19.6637C118.67 20.5988 118.904 21.6826 118.946 22.9152C118.925 23.1702 118.819 23.3933 118.627 23.5846C118.436 23.7546 118.213 23.8396 117.958 23.8396H105.175L104.793 22.1182H117.352L116.938 22.5008V21.8632C116.853 20.8644 116.534 20.0144 115.982 19.3131C115.429 18.6118 114.76 18.0805 113.973 17.7193C113.187 17.358 112.369 17.1774 111.519 17.1774C110.881 17.1774 110.223 17.3049 109.543 17.5599C108.884 17.8149 108.278 18.2187 107.726 18.7712C107.194 19.3025 106.759 19.9931 106.419 20.8432C106.079 21.672 105.909 22.6601 105.909 23.8077C105.909 25.0615 106.164 26.1984 106.674 27.2185C107.184 28.2386 107.917 29.0461 108.873 29.6411C109.851 30.2362 111.009 30.5337 112.348 30.5337C113.092 30.5337 113.761 30.4274 114.356 30.2149C114.951 30.0024 115.472 29.7261 115.918 29.3861C116.364 29.0248 116.736 28.653 117.034 28.2704C117.267 28.0792 117.501 27.9835 117.735 27.9835C117.947 27.9835 118.128 28.0685 118.277 28.2386C118.447 28.4086 118.532 28.5998 118.532 28.8123C118.532 29.0673 118.426 29.2905 118.213 29.4817C117.576 30.2468 116.747 30.9162 115.727 31.49C114.707 32.0425 113.591 32.3188 112.38 32.3188ZM136.396 8.41128C136.673 8.41128 136.896 8.50691 137.066 8.69817C137.257 8.86817 137.353 9.09131 137.353 9.36757V31.0437C137.353 31.2987 137.257 31.5219 137.066 31.7131C136.875 31.9044 136.651 32 136.396 32C136.12 32 135.886 31.9044 135.695 31.7131C135.525 31.5219 135.44 31.2987 135.44 31.0437V27.2504L135.982 26.8041C135.982 27.3991 135.823 28.026 135.504 28.6848C135.185 29.3224 134.728 29.9174 134.133 30.4699C133.559 31.0224 132.879 31.4687 132.093 31.8087C131.328 32.1488 130.499 32.3188 129.607 32.3188C128.183 32.3188 126.897 31.9469 125.75 31.2031C124.623 30.4593 123.731 29.4499 123.072 28.1748C122.413 26.8997 122.084 25.444 122.084 23.8077C122.084 22.1926 122.413 20.7475 123.072 19.4725C123.731 18.1762 124.623 17.1667 125.75 16.4442C126.876 15.7004 128.151 15.3285 129.575 15.3285C130.446 15.3285 131.275 15.4879 132.061 15.8067C132.848 16.1254 133.538 16.5611 134.133 17.1136C134.749 17.6661 135.228 18.3037 135.568 19.0262C135.929 19.7275 136.11 20.4607 136.11 21.2257L135.44 20.7475V9.36757C135.44 9.11256 135.525 8.88942 135.695 8.69817C135.886 8.50691 136.12 8.41128 136.396 8.41128ZM129.766 30.5337C130.914 30.5337 131.912 30.2468 132.763 29.673C133.634 29.078 134.314 28.2811 134.803 27.2823C135.313 26.2622 135.568 25.104 135.568 23.8077C135.568 22.5326 135.313 21.3957 134.803 20.3969C134.314 19.3768 133.634 18.5799 132.763 18.0061C131.891 17.4111 130.892 17.1136 129.766 17.1136C128.661 17.1136 127.662 17.4111 126.77 18.0061C125.898 18.5799 125.208 19.3768 124.698 20.3969C124.209 21.3957 123.965 22.5326 123.965 23.8077C123.965 25.0828 124.209 26.2303 124.698 27.2504C125.208 28.2704 125.898 29.078 126.77 29.673C127.662 30.2468 128.661 30.5337 129.766 30.5337ZM155.728 15.711C156.004 15.711 156.227 15.8067 156.397 15.9979C156.589 16.1892 156.684 16.4229 156.684 16.6992V31.0437C156.684 31.2987 156.589 31.5219 156.397 31.7131C156.206 31.9044 155.983 32 155.728 32C155.452 32 155.218 31.9044 155.027 31.7131C154.857 31.5219 154.772 31.2987 154.772 31.0437V27.2504L155.313 26.9954C155.313 27.5904 155.143 28.1961 154.803 28.8123C154.485 29.4286 154.038 30.0024 153.465 30.5337C152.891 31.065 152.211 31.5006 151.425 31.8406C150.66 32.1594 149.831 32.3188 148.938 32.3188C147.493 32.3188 146.197 31.9469 145.049 31.2031C143.923 30.4593 143.03 29.4392 142.372 28.1429C141.734 26.8466 141.415 25.3909 141.415 23.7758C141.415 22.1182 141.745 20.6625 142.403 19.4087C143.062 18.1337 143.955 17.1349 145.081 16.4123C146.207 15.6898 147.482 15.3285 148.906 15.3285C149.82 15.3285 150.67 15.4879 151.456 15.8067C152.264 16.1254 152.965 16.5611 153.56 17.1136C154.155 17.6661 154.612 18.3037 154.931 19.0262C155.271 19.7275 155.441 20.4607 155.441 21.2257L154.772 20.7475V16.6992C154.772 16.4229 154.857 16.1892 155.027 15.9979C155.218 15.8067 155.452 15.711 155.728 15.711ZM149.098 30.5337C150.224 30.5337 151.223 30.2468 152.094 29.673C152.965 29.078 153.645 28.2704 154.134 27.2504C154.644 26.2091 154.899 25.0509 154.899 23.7758C154.899 22.522 154.644 21.3957 154.134 20.3969C153.645 19.3981 152.965 18.6012 152.094 18.0061C151.223 17.4111 150.224 17.1136 149.098 17.1136C147.992 17.1136 146.994 17.4005 146.101 17.9743C145.23 18.5481 144.539 19.3343 144.029 20.3331C143.54 21.3319 143.296 22.4795 143.296 23.7758C143.296 25.0509 143.54 26.2091 144.029 27.2504C144.539 28.2704 145.23 29.078 146.101 29.673C146.972 30.2468 147.971 30.5337 149.098 30.5337Z" fill="#222222"/>
</svg>
