<svg width="26" height="24" viewBox="0 0 26 24" fill="none" xmlns="http://www.w3.org/2000/svg">
<path fill-rule="evenodd" clip-rule="evenodd" d="M12.5972 8.53844H12.5972C14.4195 8.53844 15.9104 10.0294 15.9104 11.8517V24H9.28398V11.8517C9.28398 10.0294 10.7749 8.53844 12.5972 8.53844ZM12.5972 7.33497e-05C14.4271 7.33497e-05 15.9104 1.48342 15.9104 3.31318C15.9104 5.14308 14.4271 6.62643 12.5972 6.62643C10.7674 6.62643 9.28406 5.14308 9.28406 3.31318C9.28406 1.48342 10.7674 7.33497e-05 12.5972 7.33497e-05ZM3.3131 15.4616H3.31326C5.1355 15.4616 6.62643 13.9706 6.62643 12.1484V7.33497e-05H0V12.1484C0 13.9706 1.49093 15.4616 3.3131 15.4616ZM3.31326 23.9999C5.14301 23.9999 6.62636 22.5166 6.62636 20.6867C6.62636 18.8569 5.14301 17.3736 3.31326 17.3736C1.48335 17.3736 0 18.8569 0 20.6867C0 22.5166 1.48335 23.9999 3.31326 23.9999ZM21.8769 15.507H21.8771C23.6994 15.507 25.1903 14.0161 25.1903 12.1939V0H18.5639V12.1939C18.5639 14.0161 20.0547 15.507 21.8769 15.507ZM21.8771 23.9999C23.7069 23.9999 25.1903 22.5166 25.1903 20.6867C25.1903 18.8569 23.7069 17.3736 21.8771 17.3736C20.0473 17.3736 18.5639 18.8569 18.5639 20.6867C18.5639 22.5166 20.0473 23.9999 21.8771 23.9999Z" fill="white"/>
</svg>
