<svg width="14" height="12" viewBox="0 0 14 12" fill="none" xmlns="http://www.w3.org/2000/svg">
<path fill-rule="evenodd" clip-rule="evenodd" d="M0.368421 0.75H0.736842V2.625C0.736842 2.835 0.898947 3 1.10526 3C1.31158 3 1.47368 2.835 1.47368 2.625V0.375C1.47368 0.165 1.31158 0 1.10526 0H0.368421C0.162105 0 0 0.165 0 0.375C0 0.585 0.162105 0.75 0.368421 0.75ZM13.2632 2.25H4.42105C4.01579 2.25 3.68421 1.9125 3.68421 1.5C3.68421 1.0875 4.01579 0.75 4.42105 0.75H13.2632C13.6684 0.75 14 1.0875 14 1.5C14 1.9125 13.6684 2.25 13.2632 2.25ZM4.42105 9.75H13.2632C13.6684 9.75 14 10.0875 14 10.5C14 10.9125 13.6684 11.25 13.2632 11.25H4.42105C4.01579 11.25 3.68421 10.9125 3.68421 10.5C3.68421 10.0875 4.01579 9.75 4.42105 9.75ZM13.2632 5.25H4.42105C4.01579 5.25 3.68421 5.5875 3.68421 6C3.68421 6.4125 4.01579 6.75 4.42105 6.75H13.2632C13.6684 6.75 14 6.4125 14 6C14 5.5875 13.6684 5.25 13.2632 5.25ZM1.84211 9C2.04842 9 2.21053 9.165 2.21053 9.375V11.625C2.21053 11.835 2.04842 12 1.84211 12H0.368421C0.162105 12 0 11.835 0 11.625C0 11.415 0.162105 11.25 0.368421 11.25H1.47368V10.875H1.10526C0.898947 10.875 0.736842 10.71 0.736842 10.5C0.736842 10.29 0.898947 10.125 1.10526 10.125H1.47368V9.75H0.368421C0.162105 9.75 0 9.585 0 9.375C0 9.165 0.162105 9 0.368421 9H1.84211ZM0 4.875C0 4.665 0.162105 4.5 0.368421 4.5H1.84211C2.04842 4.5 2.21053 4.665 2.21053 4.875V5.04C2.21031 5.12821 2.17892 5.21339 2.12211 5.28L0.884211 6.75H1.84211C2.04842 6.75 2.21053 6.915 2.21053 7.125C2.21053 7.335 2.04842 7.5 1.84211 7.5H0.368421C0.162105 7.5 0 7.335 0 7.125V6.96C0.000220969 6.87179 0.0316049 6.78661 0.0884211 6.72L1.32632 5.25H0.368421C0.162105 5.25 0 5.085 0 4.875Z" fill="black"/>
</svg>
