<svg width="120" height="120" viewBox="0 0 120 120" fill="none" xmlns="http://www.w3.org/2000/svg">
<g filter="url(#filter0_d_2494_12935)">
<path d="M100 50C100 80.8 90.8 90 60 90C28 90 20 81.2 20 50C20 18.8 28.4 10 60 10C90.8 10 100 19.2 100 50Z" fill="#CF0058" fill-opacity="0.3" shape-rendering="crispEdges"/>
<path d="M99.75 50C99.75 65.3923 97.4468 75.2996 91.3732 81.3732C85.2996 87.4468 75.3923 89.75 60 89.75C44.0024 89.75 34.0999 87.545 28.1782 81.5247C22.2555 75.5033 20.25 65.5997 20.25 50C20.25 34.4024 22.3549 24.498 28.3275 18.476C34.2996 12.4546 44.2035 10.25 60 10.25C75.3923 10.25 85.2996 12.5532 91.3732 18.6268C97.4468 24.7004 99.75 34.6077 99.75 50Z" stroke="#EDEEF1" stroke-width="0.5" shape-rendering="crispEdges"/>
</g>
<g clip-path="url(#clip0_2494_12935)">
<path d="M63.9635 72.4085C64.516 72.4085 65.0459 72.189 65.4366 71.7983C65.8273 71.4076 66.0468 70.8777 66.0468 70.3252C66.0468 66.4574 64.5103 62.7481 61.7754 60.0132C59.0405 57.2783 55.3312 55.7418 51.4635 55.7418C47.5957 55.7418 43.8864 57.2783 41.1515 60.0132C38.4166 62.7481 36.8801 66.4574 36.8801 70.3252C36.8801 70.8777 37.0996 71.4076 37.4903 71.7983C37.881 72.189 38.4109 72.4085 38.9635 72.4085H63.9635Z" fill="url(#paint0_linear_2494_12935)"/>
<path d="M63.9522 45.4983C62.7824 46.2799 61.407 46.6972 60 46.6972C58.1133 46.6972 56.3039 45.9477 54.9698 44.6136C53.6357 43.2795 52.8862 41.47 52.8862 39.5833C52.8862 38.1764 53.3034 36.801 54.0851 35.6311C54.8667 34.4612 55.9778 33.5495 57.2776 33.011C58.5775 32.4726 60.0079 32.3317 61.3878 32.6062C62.7678 32.8807 64.0353 33.5582 65.0302 34.5531C66.0251 35.548 66.7026 36.8156 66.9771 38.1955C67.2516 39.5754 67.1107 41.0058 66.5723 42.3057C66.0339 43.6056 65.1221 44.7166 63.9522 45.4983ZM73.1108 67.2775C72.9488 67.4395 72.7291 67.5305 72.5 67.5305H47.5C47.2709 67.5305 47.0512 67.4395 46.8892 67.2775C46.7272 67.1155 46.6362 66.8958 46.6362 66.6667C46.6362 63.1224 48.0441 59.7232 50.5503 57.217C53.0565 54.7108 56.4557 53.3028 60 53.3028C63.5443 53.3028 66.9434 54.7108 69.4496 57.217C71.9558 59.7232 73.3638 63.1224 73.3638 66.6667C73.3638 66.8958 73.2728 67.1155 73.1108 67.2775Z" stroke="#A60046" stroke-width="2.43902"/>
</g>
<defs>
<filter id="filter0_d_2494_12935" x="0" y="0" width="120" height="120" filterUnits="userSpaceOnUse" color-interpolation-filters="sRGB">
<feFlood flood-opacity="0" result="BackgroundImageFix"/>
<feColorMatrix in="SourceAlpha" type="matrix" values="0 0 0 0 0 0 0 0 0 0 0 0 0 0 0 0 0 0 127 0" result="hardAlpha"/>
<feOffset dy="10"/>
<feGaussianBlur stdDeviation="10"/>
<feComposite in2="hardAlpha" operator="out"/>
<feColorMatrix type="matrix" values="0 0 0 0 0.541176 0 0 0 0 0.584314 0 0 0 0 0.619608 0 0 0 0.1 0"/>
<feBlend mode="normal" in2="BackgroundImageFix" result="effect1_dropShadow_2494_12935"/>
<feBlend mode="normal" in="SourceGraphic" in2="effect1_dropShadow_2494_12935" result="shape"/>
</filter>
<linearGradient id="paint0_linear_2494_12935" x1="37.4391" y1="98.1707" x2="53.9025" y2="59.1463" gradientUnits="userSpaceOnUse">
<stop stop-color="#CF0058"/>
<stop offset="1" stop-color="#CF0058" stop-opacity="0"/>
</linearGradient>
<clipPath id="clip0_2494_12935">
<rect width="50" height="50" fill="white" transform="translate(35 25)"/>
</clipPath>
</defs>
</svg>
