<svg width="147" height="45" viewBox="0 0 147 45" fill="none" xmlns="http://www.w3.org/2000/svg">
<g clip-path="url(#clip0_2494_13123)">
<path d="M141.556 44.1579H5.45708C2.40846 44.1579 0.0131226 41.7626 0.0131226 38.7139V6.05019C0.0131226 3.00157 2.40846 0.606232 5.45708 0.606232H141.556C144.605 0.606232 147 3.00157 147 6.05019V38.7139C147 41.7626 144.605 44.1579 141.556 44.1579Z" fill="black"/>
<path d="M141.556 1.47726C144.06 1.47726 146.129 3.54597 146.129 6.05019V38.7139C146.129 41.2182 144.06 43.2869 141.556 43.2869H5.45708C2.95286 43.2869 0.884156 41.2182 0.884156 38.7139V6.05019C0.884156 3.54597 2.95286 1.47726 5.45708 1.47726H141.556ZM141.556 0.606232H5.45708C2.40846 0.606232 0.0131226 3.11045 0.0131226 6.05019V38.7139C0.0131226 41.7626 2.40846 44.1579 5.45708 44.1579H141.556C144.605 44.1579 147 41.7626 147 38.7139V6.05019C147 3.11045 144.605 0.606232 141.556 0.606232Z" fill="#A6A6A6"/>
<path d="M51.6219 11.7119C51.6219 12.5829 51.4041 13.3451 50.8597 13.8895C50.2064 14.5428 49.4443 14.8694 48.4644 14.8694C47.4845 14.8694 46.7223 14.5428 46.069 13.8895C45.4157 13.2362 45.0891 12.4741 45.0891 11.4941C45.0891 10.5142 45.4157 9.75208 46.069 9.09881C46.7223 8.44553 47.4845 8.1189 48.4644 8.1189C48.8999 8.1189 49.3354 8.22778 49.7709 8.44553C50.2064 8.66329 50.5331 8.88105 50.7508 9.20769L50.2064 9.75208C49.7709 9.20769 49.2265 8.98993 48.4644 8.98993C47.8111 8.98993 47.1578 9.20769 46.7223 9.75208C46.1779 10.1876 45.9601 10.8409 45.9601 11.603C45.9601 12.3652 46.1779 13.0185 46.7223 13.454C47.2667 13.8895 47.8111 14.2161 48.4644 14.2161C49.2265 14.2161 49.7709 13.9984 50.3153 13.454C50.6419 13.1273 50.8597 12.6918 50.8597 12.1474H48.4644V11.2764H51.6219V11.7119ZM56.6303 8.98993H53.6906V11.0586H56.4125V11.8208H53.6906V13.8895H56.6303V14.7605H52.8195V8.22778H56.6303V8.98993ZM60.2233 14.7605H59.3523V8.98993H57.5013V8.22778H62.0743V8.98993H60.2233V14.7605ZM65.2318 14.7605V8.22778H66.1028V14.7605H65.2318ZM69.8047 14.7605H68.9336V8.98993H67.0827V8.22778H71.5467V8.98993H69.6958V14.7605H69.8047ZM80.1482 13.8895C79.4949 14.5428 78.7328 14.8694 77.7529 14.8694C76.7729 14.8694 76.0108 14.5428 75.3575 13.8895C74.7042 13.2362 74.3776 12.4741 74.3776 11.4941C74.3776 10.5142 74.7042 9.75208 75.3575 9.09881C76.0108 8.44553 76.7729 8.1189 77.7529 8.1189C78.7328 8.1189 79.4949 8.44553 80.1482 9.09881C80.8015 9.75208 81.1281 10.5142 81.1281 11.4941C81.1281 12.4741 80.8015 13.2362 80.1482 13.8895ZM76.0108 13.3451C76.4463 13.7806 77.0996 14.1072 77.7529 14.1072C78.4061 14.1072 79.0594 13.8895 79.4949 13.3451C79.9304 12.9096 80.2571 12.2563 80.2571 11.4941C80.2571 10.732 80.0393 10.0787 79.4949 9.6432C79.0594 9.20769 78.4061 8.88105 77.7529 8.88105C77.0996 8.88105 76.4463 9.09881 76.0108 9.6432C75.5753 10.0787 75.2486 10.732 75.2486 11.4941C75.2486 12.2563 75.4664 12.9096 76.0108 13.3451ZM82.3258 14.7605V8.22778H83.3057L86.4632 13.3451V8.22778H87.3342V14.7605H86.4632L83.0879 9.42545V14.7605H82.3258Z" fill="white" stroke="white" stroke-width="0.217758" stroke-miterlimit="10"/>
<path d="M74.1598 24.3419C71.5467 24.3419 69.478 26.3017 69.478 29.0237C69.478 31.6368 71.5467 33.7055 74.1598 33.7055C76.7729 33.7055 78.8416 31.7457 78.8416 29.0237C78.8416 26.1928 76.7729 24.3419 74.1598 24.3419ZM74.1598 31.7457C72.7443 31.7457 71.5467 30.548 71.5467 28.9148C71.5467 27.2816 72.7443 26.0839 74.1598 26.0839C75.5752 26.0839 76.7729 27.1727 76.7729 28.9148C76.7729 30.548 75.5752 31.7457 74.1598 31.7457ZM64.034 24.3419C61.4209 24.3419 59.3522 26.3017 59.3522 29.0237C59.3522 31.6368 61.4209 33.7055 64.034 33.7055C66.6471 33.7055 68.7158 31.7457 68.7158 29.0237C68.7158 26.1928 66.6471 24.3419 64.034 24.3419ZM64.034 31.7457C62.6186 31.7457 61.4209 30.548 61.4209 28.9148C61.4209 27.2816 62.6186 26.0839 64.034 26.0839C65.4494 26.0839 66.6471 27.1727 66.6471 28.9148C66.6471 30.548 65.4494 31.7457 64.034 31.7457ZM51.9484 25.7573V27.7171H56.6302C56.5213 28.8059 56.0858 29.6769 55.5414 30.2213C54.8882 30.8746 53.7994 31.6368 51.9484 31.6368C49.0087 31.6368 46.8311 29.3503 46.8311 26.4106C46.8311 23.4708 49.1176 21.1844 51.9484 21.1844C53.4727 21.1844 54.6704 21.8376 55.5414 22.5998L56.9569 21.1844C55.7592 20.0956 54.2349 19.2245 52.0573 19.2245C48.1376 19.2245 44.7624 22.4909 44.7624 26.4106C44.7624 30.3302 48.1376 33.5966 52.0573 33.5966C54.2349 33.5966 55.7592 32.9433 57.0657 31.5279C58.3723 30.2213 58.8078 28.3704 58.8078 26.955C58.8078 26.5195 58.8078 26.0839 58.6989 25.7573H51.9484ZM101.38 27.2816C100.944 26.1928 99.8552 24.3419 97.4599 24.3419C95.0646 24.3419 93.1047 26.1928 93.1047 29.0237C93.1047 31.6368 95.0646 33.7055 97.6777 33.7055C99.7464 33.7055 101.053 32.3989 101.488 31.6368L99.9641 30.548C99.4197 31.3101 98.7664 31.8545 97.6777 31.8545C96.5889 31.8545 95.9356 31.419 95.3912 30.4391L101.597 27.826L101.38 27.2816ZM95.0646 28.8059C95.0646 27.0638 96.48 26.0839 97.4599 26.0839C98.2221 26.0839 98.9842 26.5195 99.202 27.0638L95.0646 28.8059ZM89.9472 33.27H92.0159V19.6601H89.9472V33.27ZM86.6809 25.3218C86.1365 24.7774 85.2654 24.233 84.1766 24.233C81.8902 24.233 79.7126 26.3017 79.7126 28.9148C79.7126 31.5279 81.7813 33.4877 84.1766 33.4877C85.2654 33.4877 86.1365 32.9433 86.572 32.3989H86.6809V33.0522C86.6809 34.7943 85.701 35.7742 84.1766 35.7742C82.979 35.7742 82.1079 34.9031 81.8902 34.141L80.1481 34.9031C80.6925 36.1008 81.9991 37.6251 84.2855 37.6251C86.6809 37.6251 88.6407 36.2097 88.6407 32.8344V24.5596H86.6809V25.3218ZM84.2855 31.7457C82.8701 31.7457 81.6724 30.548 81.6724 28.9148C81.6724 27.2816 82.8701 26.0839 84.2855 26.0839C85.701 26.0839 86.7897 27.2816 86.7897 28.9148C86.7897 30.548 85.701 31.7457 84.2855 31.7457ZM110.852 19.6601H105.952V33.27H108.021V28.1526H110.852C113.139 28.1526 115.316 26.5195 115.316 23.9064C115.316 21.2933 113.139 19.6601 110.852 19.6601ZM110.961 26.1928H108.021V21.511H110.961C112.485 21.511 113.356 22.8176 113.356 23.7975C113.247 24.9951 112.376 26.1928 110.961 26.1928ZM123.482 24.233C121.958 24.233 120.433 24.8863 119.889 26.3017L121.74 27.0638C122.175 26.3017 122.829 26.0839 123.591 26.0839C124.68 26.0839 125.66 26.7372 125.768 27.826V27.9349C125.442 27.7171 124.571 27.3905 123.7 27.3905C121.74 27.3905 119.78 28.4793 119.78 30.4391C119.78 32.29 121.413 33.4877 123.155 33.4877C124.571 33.4877 125.224 32.8344 125.768 32.1812H125.877V33.27H127.837V28.0438C127.619 25.6484 125.768 24.233 123.482 24.233ZM123.264 31.7457C122.611 31.7457 121.631 31.419 121.631 30.548C121.631 29.4592 122.829 29.1326 123.809 29.1326C124.68 29.1326 125.115 29.3503 125.66 29.5681C125.442 30.8746 124.353 31.7457 123.264 31.7457ZM134.697 24.5596L132.41 30.4391H132.301L129.906 24.5596H127.728L131.321 32.8344L129.253 37.4074H131.321L136.874 24.5596H134.697ZM116.405 33.27H118.474V19.6601H116.405V33.27Z" fill="white"/>
<path d="M11.3365 8.77222C11.0099 9.09885 10.901 9.64325 10.901 10.2965V34.3588C10.901 35.0121 11.1188 35.5565 11.4454 35.8831L11.5543 35.992L25.0553 22.491V22.2732L11.3365 8.77222Z" fill="url(#paint0_linear_2494_13123)"/>
<path d="M29.4105 27.0639L24.9464 22.5998V22.2732L29.4105 17.8091L29.5193 17.918L34.8544 20.9666C36.3787 21.8377 36.3787 23.2531 34.8544 24.1241L29.4105 27.0639Z" fill="url(#paint1_linear_2494_13123)"/>
<path d="M29.5194 26.955L24.9464 22.3821L11.3365 35.992C11.8809 36.5364 12.6431 36.5364 13.623 36.1009L29.5194 26.955Z" fill="url(#paint2_linear_2494_13123)"/>
<path d="M29.5194 17.8092L13.623 8.77219C12.6431 8.22779 11.8809 8.33667 11.3365 8.88107L24.9464 22.3821L29.5194 17.8092Z" fill="url(#paint3_linear_2494_13123)"/>
<path opacity="0.2" d="M29.4105 26.8461L13.623 35.7742C12.752 36.3186 11.9898 36.2097 11.4454 35.7742L11.3365 35.8831L11.4454 35.9919C11.9898 36.4275 12.752 36.5363 13.623 35.9919L29.4105 26.8461Z" fill="black"/>
<path opacity="0.12" d="M11.3365 35.7742C11.0099 35.4476 10.901 34.9032 10.901 34.2499V34.3588C10.901 35.0121 11.1188 35.5565 11.4454 35.8831V35.7742H11.3365ZM34.8544 23.7975L29.4105 26.8461L29.5193 26.955L34.8544 23.9064C35.6166 23.4709 35.9432 22.9265 35.9432 22.3821C35.9432 22.9265 35.5077 23.362 34.8544 23.7975Z" fill="black"/>
<path opacity="0.25" d="M13.623 8.88098L34.8544 20.9666C35.5077 21.4021 35.9432 21.8376 35.9432 22.382C35.9432 21.8376 35.6166 21.2932 34.8544 20.8577L13.623 8.77211C12.0987 7.90107 10.901 8.55435 10.901 10.2964V10.4053C10.901 8.77211 12.0987 8.00995 13.623 8.88098Z" fill="white"/>
</g>
<defs>
<linearGradient id="paint0_linear_2494_13123" x1="23.7487" y1="10.0897" x2="5.47555" y2="28.3618" gradientUnits="userSpaceOnUse">
<stop stop-color="#00A0FF"/>
<stop offset="0.007" stop-color="#00A1FF"/>
<stop offset="0.26" stop-color="#00BEFF"/>
<stop offset="0.512" stop-color="#00D2FF"/>
<stop offset="0.76" stop-color="#00DFFF"/>
<stop offset="1" stop-color="#00E3FF"/>
</linearGradient>
<linearGradient id="paint1_linear_2494_13123" x1="36.8513" y1="22.3832" x2="10.5058" y2="22.3832" gradientUnits="userSpaceOnUse">
<stop stop-color="#FFE000"/>
<stop offset="0.409" stop-color="#FFBD00"/>
<stop offset="0.775" stop-color="#FFA500"/>
<stop offset="1" stop-color="#FF9C00"/>
</linearGradient>
<linearGradient id="paint2_linear_2494_13123" x1="27.0445" y1="24.8819" x2="2.26583" y2="49.6607" gradientUnits="userSpaceOnUse">
<stop stop-color="#FF3A44"/>
<stop offset="1" stop-color="#C31162"/>
</linearGradient>
<linearGradient id="paint3_linear_2494_13123" x1="7.95803" y1="0.797881" x2="19.0234" y2="11.8633" gradientUnits="userSpaceOnUse">
<stop stop-color="#32A071"/>
<stop offset="0.069" stop-color="#2DA771"/>
<stop offset="0.476" stop-color="#15CF74"/>
<stop offset="0.801" stop-color="#06E775"/>
<stop offset="1" stop-color="#00F076"/>
</linearGradient>
<clipPath id="clip0_2494_13123">
<rect width="146.987" height="44.6405" fill="white" transform="translate(0.0131226 0.0618286)"/>
</clipPath>
</defs>
</svg>
