<svg width="12" height="8" viewBox="0 0 12 8" fill="none" xmlns="http://www.w3.org/2000/svg">
<path fill-rule="evenodd" clip-rule="evenodd" d="M3.2775 7.408C3.1125 7.768 2.76 8 2.3775 8C1.6275 8 1.14 7.16 1.4775 6.448L2.25 4.8H0.75C0.3375 4.8 0 4.44 0 4V0.8C0 0.36 0.3375 0 0.75 0H3.75C4.1625 0 4.5 0.36 4.5 0.8V4.424C4.5 4.672 4.4475 4.912 4.3425 5.136L3.2775 7.408ZM10.7775 7.408C10.6125 7.768 10.26 8 9.8775 8C9.1275 8 8.64 7.16 8.9775 6.448L9.75 4.8H8.25C7.8375 4.8 7.5 4.44 7.5 4V0.8C7.5 0.36 7.8375 0 8.25 0H11.25C11.6625 0 12 0.36 12 0.8V4.424C12 4.672 11.9475 4.912 11.8425 5.136L10.7775 7.408Z" fill="black"/>
</svg>
