<svg width="12" height="12" viewBox="0 0 12 12" fill="none" xmlns="http://www.w3.org/2000/svg">
<path fill-rule="evenodd" clip-rule="evenodd" d="M0.370021 1.29L2.75528 5.0475L0.132977 9.21C-0.22259 9.7725 0.177422 10.5 0.829294 10.5C1.11819 10.5 1.38487 10.35 1.53302 10.11L3.80716 6.4425H3.89605L6.1702 10.11C6.32576 10.35 6.59243 10.5 6.87392 10.5C7.52579 10.5 7.9258 9.765 7.57024 9.2025L4.94053 5.04L7.33319 1.29C7.68876 0.735 7.28875 0 6.63688 0C6.34798 0 6.0813 0.15 5.92574 0.405L3.89605 3.7425H3.80716L1.76266 0.3975C1.60519 0.145628 1.32697 -0.00205704 1.03279 0.0100771C0.738618 0.0222112 0.473184 0.192321 0.336475 0.456327C0.199767 0.720333 0.212555 1.03813 0.370021 1.29ZM11.6296 11.25C11.837 11.25 12 11.415 12 11.625C12 11.835 11.837 12 11.6296 12H9.77771C9.37029 12 9.03695 11.6625 9.03695 11.25V10.5C9.03695 10.0875 9.37029 9.75 9.77771 9.75H11.2592V9H9.40733C9.19992 9 9.03695 8.835 9.03695 8.625C9.03695 8.415 9.19992 8.25 9.40733 8.25H11.2592C11.6667 8.25 12 8.5875 12 9V9.75C12 10.1625 11.6667 10.5 11.2592 10.5H9.77771V11.25H11.6296Z" fill="black"/>
</svg>
