<svg width="12" height="12" viewBox="0 0 12 12" fill="none" xmlns="http://www.w3.org/2000/svg">
<path fill-rule="evenodd" clip-rule="evenodd" d="M11.6296 3C11.837 3 12 3.165 12 3.375C12 3.585 11.837 3.75 11.6296 3.75H9.77771C9.37029 3.75 9.03695 3.4125 9.03695 3V2.25C9.03695 1.8375 9.37029 1.5 9.77771 1.5H11.2592V0.75H9.40733C9.19992 0.75 9.03695 0.585 9.03695 0.375C9.03695 0.165 9.19992 0 9.40733 0H11.2592C11.6667 0 12 0.3375 12 0.75V1.5C12 1.9125 11.6667 2.25 11.2592 2.25H9.77771V3H11.6296ZM0.370021 2.79L2.74787 6.5475L0.132977 10.71C-0.22259 11.2725 0.177422 12 0.829294 12C1.11819 12 1.37746 11.85 1.53302 11.61L3.80716 7.9425H3.89605L6.1702 11.61C6.32576 11.85 6.59243 12 6.87392 12C7.52579 12 7.9258 11.265 7.56283 10.7025L4.93312 6.54L7.32579 2.79C7.68135 2.235 7.28134 1.5 6.62947 1.5C6.34057 1.5 6.0739 1.65 5.92574 1.905L3.89605 5.2425H3.80716L1.76266 1.8975C1.60519 1.64563 1.32697 1.49794 1.03279 1.51008C0.738618 1.52221 0.473184 1.69232 0.336475 1.95633C0.199767 2.22033 0.212555 2.53813 0.370021 2.79Z" fill="black"/>
</svg>
