<svg width="18" height="16" viewBox="0 0 18 16" fill="none" xmlns="http://www.w3.org/2000/svg">
<path opacity="0.3" d="M1.5 12.75H16.5C17.325 12.75 18 13.425 18 14.25C18 15.075 17.325 15.75 16.5 15.75H1.5C0.675 15.75 0 15.075 0 14.25C0 13.425 0.675 12.75 1.5 12.75Z" fill="black"/>
<path fill-rule="evenodd" clip-rule="evenodd" d="M4.54585 9.435L7.97335 0.6975C8.13835 0.2775 8.55085 0 9.00085 0C9.45085 0 9.85585 0.2775 10.0284 0.6975L13.4559 9.435C13.6584 9.945 13.2759 10.5 12.7284 10.5C12.3984 10.5 12.1059 10.2975 11.9934 9.99L11.3409 8.25H6.65335L6.00835 9.99C5.88835 10.2975 5.59585 10.5 5.27335 10.5C4.71835 10.5 4.34335 9.945 4.54585 9.435ZM9.00085 2.0025L7.21585 6.75H10.7859L9.00085 2.0025Z" fill="black"/>
</svg>
