<svg width="10" height="14" viewBox="0 0 10 14" fill="none" xmlns="http://www.w3.org/2000/svg">
<path fill-rule="evenodd" clip-rule="evenodd" d="M9.28571 6.05889C9.28571 8.43111 7.72857 10.5467 5.56429 10.85C2.95 11.2156 0.714286 8.99889 0.714286 6.22222V0.972222C0.714286 0.435279 1.11403 0 1.60714 0C2.10025 0 2.5 0.435279 2.5 0.972222V6.22222C2.49905 7.04405 2.8397 7.8222 3.4266 8.3389C4.01351 8.8556 4.78363 9.05534 5.52143 8.88222C6.69286 8.62556 7.5 7.44333 7.5 6.14444V0.972222C7.5 0.435279 7.89975 0 8.39286 0C8.88597 0 9.28571 0.435279 9.28571 0.972222V6.05889ZM0.714286 14C0.321429 14 0 13.65 0 13.2222C0 12.7944 0.321429 12.4444 0.714286 12.4444H9.28571C9.67857 12.4444 10 12.7944 10 13.2222C10 13.65 9.67857 14 9.28571 14H0.714286Z" fill="black"/>
</svg>
