<svg width="14" height="11" viewBox="0 0 14 11" fill="none" xmlns="http://www.w3.org/2000/svg">
<path fill-rule="evenodd" clip-rule="evenodd" d="M0 1.1C0 0.491333 0.507027 0 1.13514 0C1.76324 0 2.27027 0.491333 2.27027 1.1C2.27027 1.70867 1.76324 2.2 1.13514 2.2C0.507027 2.2 0 1.70867 0 1.1ZM0 5.5C0 4.89133 0.507027 4.4 1.13514 4.4C1.76324 4.4 2.27027 4.89133 2.27027 5.5C2.27027 6.10867 1.76324 6.6 1.13514 6.6C0.507027 6.6 0 6.10867 0 5.5ZM1.13514 8.8C0.507027 8.8 0 9.29867 0 9.9C0 10.5013 0.514595 11 1.13514 11C1.75568 11 2.27027 10.5013 2.27027 9.9C2.27027 9.29867 1.76324 8.8 1.13514 8.8ZM13.2432 10.6333H4.16216C3.74595 10.6333 3.40541 10.3033 3.40541 9.9C3.40541 9.49667 3.74595 9.16667 4.16216 9.16667H13.2432C13.6595 9.16667 14 9.49667 14 9.9C14 10.3033 13.6595 10.6333 13.2432 10.6333ZM4.16216 6.23333H13.2432C13.6595 6.23333 14 5.90333 14 5.5C14 5.09667 13.6595 4.76667 13.2432 4.76667H4.16216C3.74595 4.76667 3.40541 5.09667 3.40541 5.5C3.40541 5.90333 3.74595 6.23333 4.16216 6.23333ZM4.16216 1.83333C3.74595 1.83333 3.40541 1.50333 3.40541 1.1C3.40541 0.696667 3.74595 0.366667 4.16216 0.366667H13.2432C13.6595 0.366667 14 0.696667 14 1.1C14 1.50333 13.6595 1.83333 13.2432 1.83333H4.16216Z" fill="black"/>
</svg>
