<svg width="200" height="200" viewBox="0 0 200 200" fill="none" xmlns="http://www.w3.org/2000/svg">
<rect width="200" height="200" rx="100" fill="#CF0058" fill-opacity="0.06"/>
<path d="M133.335 137.5V129.167C133.335 124.746 131.579 120.507 128.453 117.382C125.327 114.256 121.088 112.5 116.668 112.5H83.3346C78.9144 112.5 74.6751 114.256 71.5495 117.382C68.4239 120.507 66.668 124.746 66.668 129.167V137.5M116.668 79.1667C116.668 88.3714 109.206 95.8333 100.001 95.8333C90.7966 95.8333 83.3346 88.3714 83.3346 79.1667C83.3346 69.9619 90.7966 62.5 100.001 62.5C109.206 62.5 116.668 69.9619 116.668 79.1667Z" stroke="#A60046" stroke-width="8.33333" stroke-linecap="round" stroke-linejoin="round"/>
</svg>
