<svg width="12" height="14" viewBox="0 0 12 14" fill="none" xmlns="http://www.w3.org/2000/svg">
<path fill-rule="evenodd" clip-rule="evenodd" d="M10.5 0.777778V1.55556H9V0.777778C9 0.35 8.6625 0 8.25 0H3.75C3.3375 0 3 0.35 3 0.777778V1.55556H1.5V0.777778C1.5 0.35 1.1625 0 0.75 0C0.3375 0 0 0.35 0 0.777778V13.2222C0 13.65 0.3375 14 0.75 14C1.1625 14 1.5 13.65 1.5 13.2222V12.4444H3V13.2222C3 13.65 3.3375 14 3.75 14H8.25C8.6625 14 9 13.65 9 13.2222V12.4444H10.5V13.2222C10.5 13.65 10.8375 14 11.25 14C11.6625 14 12 13.65 12 13.2222V0.777778C12 0.35 11.6625 0 11.25 0C10.8375 0 10.5 0.35 10.5 0.777778ZM3 10.8889H1.5V9.33333H3V10.8889ZM1.5 7.77778H3V6.22222H1.5V7.77778ZM3 4.66667H1.5V3.11111H3V4.66667ZM9 10.8889H10.5V9.33333H9V10.8889ZM10.5 7.77778H9V6.22222H10.5V7.77778ZM9 4.66667H10.5V3.11111H9V4.66667Z" fill="black"/>
</svg>
